<?xml version="1.0" encoding="UTF-8"?>
<svg width="18px" height="18px" viewBox="0 0 18 18" version="1.1" xmlns="http://www.w3.org/2000/svg" xmlns:xlink="http://www.w3.org/1999/xlink">
    <!-- Generator: Sketch 46.2 (44496) - http://www.bohemiancoding.com/sketch -->
    <title>Combined Shape</title>
    <desc>Created with Sketch.</desc>
    <defs></defs>
    <g id="Page-1" stroke="none" stroke-width="1" fill="none" fill-rule="evenodd">
        <g id="Ahorcado-1" transform="translate(-773.000000, -781.000000)" fill="#000000">
            <g id="Group-9" transform="translate(629.000000, 773.000000)">
                <g id="Group-3">
                    <path d="M155.732569,17.008853 L161.453606,11.2878163 C162.205739,10.5356828 162.205739,9.31623355 161.453606,8.56410009 L161.453606,8.56410009 L161.453606,8.56410009 C160.701472,7.81196664 159.482023,7.81196664 158.72989,8.56410009 L158.72989,8.56410009 L153.008853,14.2851368 L147.287816,8.56410009 C146.535683,7.81196664 145.316234,7.81196664 144.5641,8.56410009 L144.5641,8.56410009 L144.5641,8.56410009 C143.811967,9.31623355 143.811967,10.5356828 144.5641,11.2878163 L144.5641,11.2878163 L150.285137,17.008853 L144.5641,22.7298897 C143.811967,23.4820232 143.811967,24.7014725 144.5641,25.4536059 L144.5641,25.4536059 L144.5641,25.4536059 C145.316234,26.2057394 146.535683,26.2057394 147.287816,25.4536059 L147.287816,25.4536059 L153.008853,19.7325692 L158.72989,25.4536059 C159.482023,26.2057394 160.701472,26.2057394 161.453606,25.4536059 C162.205739,24.7014725 162.205739,23.4820232 161.453606,22.7298897 L161.453606,22.7298897 L155.732569,17.008853 Z" id="Combined-Shape"></path>
                </g>
            </g>
        </g>
    </g>
</svg>