<?xml version="1.0" encoding="utf-8"?>
<!-- Generator: Adobe Illustrator 19.1.0, SVG Export Plug-In . SVG Version: 6.00 Build 0)  -->
<svg version="1.0" id="Layer_1" xmlns="http://www.w3.org/2000/svg" xmlns:xlink="http://www.w3.org/1999/xlink" x="0px" y="0px"
	 viewBox="0 0 1066.9 569" style="enable-background:new 0 0 1066.9 569;" xml:space="preserve">
<style type="text/css">
	.st0{opacity:0.1;}
	.st1{opacity:0.99;clip-path:url(#SVGID_2_);}
	.st2{fill:#05AA9E;}
	.st3{fill:#E4087E;}
	.st4{fill:#F7B132;}
</style>
<g class="st0">
	<defs>
		<rect id="SVGID_1_" x="-1.3" y="2.4" class="st0" width="1069.5" height="564.2"/>
	</defs>
	<clipPath id="SVGID_2_">
		<use xlink:href="#SVGID_1_"  style="overflow:visible;"/>
	</clipPath>
	<g class="st1">
		<g>
			<path class="st2" d="M538,857.6c-5.4,0-10.8-0.1-16.3-0.3c-51.5-2.1-101.1-14.3-147.3-36.2c-44.7-21.1-84.3-50.3-117.9-86.9
				c-33.6-36.5-59.4-78.5-76.8-124.7c-17.9-47.9-26-98.3-23.8-149.8l0,0c2.1-51.5,14.3-101.1,36.2-147.3
				c21.1-44.7,50.3-84.3,86.9-117.9s78.5-59.4,124.7-76.8c47.9-17.9,98.3-26,149.8-23.8c51.5,2.1,101.1,14.3,147.3,36.2
				c44.7,21.1,84.3,50.3,117.9,86.9c33.6,36.5,59.4,78.5,76.8,124.7c17.9,47.9,26,98.3,23.8,149.8c-2.1,51.5-14.3,101.1-36.2,147.3
				c-21.1,44.7-50.3,84.3-86.9,117.9c-36.5,33.6-78.5,59.4-124.7,76.8C628.7,849.5,583.8,857.6,538,857.6z M158.2,459.8l2.4,0.1
				c-2.1,50.9,5.8,100.7,23.5,148c17.1,45.7,42.6,87.1,75.8,123.2c33.2,36.1,72.4,64.9,116.5,85.8c45.7,21.6,94.6,33.6,145.5,35.7
				c50.9,2.1,100.7-5.8,148-23.5c45.7-17.1,87.1-42.6,123.2-75.8c36.1-33.2,64.9-72.4,85.8-116.5c21.6-45.7,33.6-94.6,35.7-145.5
				c2.1-50.9-5.8-100.7-23.5-148c-17.1-45.7-42.6-87.1-75.8-123.2c-33.2-36.1-72.4-64.9-116.5-85.8c-45.7-21.6-94.6-33.6-145.5-35.7
				c-50.9-2.1-100.7,5.8-148,23.5c-45.7,17.1-87.1,42.6-123.2,75.8s-64.9,72.4-85.8,116.5c-21.6,45.7-33.6,94.6-35.7,145.5
				L158.2,459.8z"/>
		</g>
		<g>
			<path class="st3" d="M537.5,746.6c-72.4,0-140.5-28.2-191.7-79.4C294.7,616,266.5,548,266.5,475.6s28.2-140.5,79.4-191.7
				c51.2-51.2,119.3-79.4,191.7-79.4c72.4,0,140.5,28.2,191.7,79.4c51.2,51.2,79.4,119.3,79.4,191.7S780.4,616,729.2,667.2
				C678,718.4,609.9,746.6,537.5,746.6z M537.5,209.3c-71.1,0-138,27.7-188.3,78c-50.3,50.3-78,117.2-78,188.3s27.7,138,78,188.3
				c50.3,50.3,117.2,78,188.3,78s138-27.7,188.3-78c50.3-50.3,78-117.2,78-188.3s-27.7-138-78-188.3
				C675.5,237,608.7,209.3,537.5,209.3z"/>
		</g>
		<g>
			<path class="st4" d="M537.5,654.5c-98.7,0-179-80.3-179-179s80.3-179,179-179s179,80.3,179,179S636.2,654.5,537.5,654.5z
				 M537.5,301.3c-96.1,0-174.2,78.1-174.2,174.2c0,96.1,78.1,174.2,174.2,174.2c96.1,0,174.2-78.1,174.2-174.2
				C711.8,379.5,633.6,301.3,537.5,301.3z"/>
		</g>
	</g>
</g>
</svg>
