<?xml version="1.0" encoding="utf-8"?>
<!-- Generator: Adobe Illustrator 19.0.0, SVG Export Plug-In . SVG Version: 6.00 Build 0)  -->
<svg version="1.1" id="Layer_1" xmlns="http://www.w3.org/2000/svg" xmlns:xlink="http://www.w3.org/1999/xlink" x="0px" y="0px"
	 viewBox="490.1 11 997.9 592" style="enable-background:new 490.1 11 997.9 592;" xml:space="preserve">
<style type="text/css">
	.st0{opacity:0.99;clip-path:url(#SVGID_2_);}
	.st1{fill:#05AA9E;}
	.st2{fill:#E4087E;}
	.st3{fill:#F7B132;}
	.st4{fill:none;}
	.st5{fill:#2BACE2;}
	.st6{fill:#FFFFFF;}
	.st7{opacity:0.1;}
	.st8{fill:#FFFFFF;stroke:#2BACE2;stroke-width:5.6693;stroke-miterlimit:10;}
	.st9{opacity:0.2;}
	.st10{fill:#FFFFFF;stroke:#2BACE2;stroke-width:2.8346;stroke-miterlimit:10;}
	.st11{opacity:0.3;}
	.st12{opacity:0.1;fill:#2BACE2;enable-background:new    ;}
	.st13{opacity:0.1;enable-background:new    ;}
</style>
<g>
	<g>
		<defs>
			<rect id="SVGID_1_" x="421.1" y="21.5" width="1069.5" height="564.2"/>
		</defs>
		<clipPath id="SVGID_2_">
			<use xlink:href="#SVGID_1_"  style="overflow:visible;"/>
		</clipPath>
		<g class="st0">
			<g>
				<path class="st1" d="M960.3,876.7c-5.4,0-10.8-0.1-16.3-0.3c-51.5-2.1-101.1-14.3-147.3-36.2c-44.7-21.1-84.3-50.3-117.9-86.9
					c-33.6-36.5-59.4-78.5-76.8-124.7c-17.9-47.9-26-98.3-23.8-149.8l0,0c2.1-51.5,14.3-101.1,36.2-147.3
					c21.1-44.7,50.3-84.3,86.9-117.9c36.6-33.6,78.5-59.4,124.7-76.8c47.9-17.9,98.3-26,149.8-23.8c51.5,2.1,101.1,14.3,147.3,36.2
					c44.7,21.1,84.3,50.3,117.9,86.9c33.6,36.5,59.4,78.5,76.8,124.7c17.9,47.9,26,98.3,23.8,149.8c-2.1,51.5-14.3,101.1-36.2,147.3
					c-21.1,44.7-50.3,84.3-86.9,117.9c-36.5,33.6-78.5,59.4-124.7,76.8C1051,868.6,1006.2,876.7,960.3,876.7z M580.6,478.9l2.4,0.1
					c-2.1,50.9,5.8,100.7,23.5,148c17.1,45.7,42.6,87.1,75.8,123.2c33.2,36.1,72.4,64.9,116.5,85.8c45.7,21.6,94.6,33.6,145.5,35.7
					c50.9,2.1,100.7-5.8,148-23.5c45.7-17.1,87.1-42.6,123.2-75.8c36.1-33.2,64.9-72.4,85.8-116.5c21.6-45.7,33.6-94.6,35.7-145.5
					s-5.8-100.7-23.5-148c-17.1-45.7-42.6-87.1-75.8-123.2c-33.2-36.1-72.4-64.9-116.5-85.8c-45.7-21.6-94.6-33.6-145.5-35.7
					c-50.9-2.1-100.7,5.8-148,23.5c-45.7,17.1-87.1,42.6-123.2,75.8c-36.1,33.2-64.9,72.4-85.8,116.5
					c-21.6,45.7-33.6,94.6-35.7,145.5L580.6,478.9z"/>
			</g>
			<g>
				<path class="st2" d="M959.9,765.7c-72.4,0-140.5-28.2-191.7-79.4S688.8,567,688.8,494.6S717,354.2,768.2,303
					s119.3-79.4,191.7-79.4s140.5,28.2,191.7,79.4c51.2,51.2,79.4,119.3,79.4,191.7s-28.2,140.5-79.4,191.7
					C1100.4,737.5,1032.3,765.7,959.9,765.7z M959.9,228.3c-71.1,0-138,27.7-188.3,78s-78,117.2-78,188.3s27.7,138,78,188.3
					s117.2,78,188.3,78s138-27.7,188.3-78c50.3-50.3,78-117.2,78-188.3s-27.7-138-78-188.3C1097.9,256,1031,228.3,959.9,228.3z"/>
			</g>
			<g>
				<path class="st3" d="M959.9,673.6c-98.7,0-179-80.3-179-179s80.3-179,179-179s179,80.3,179,179S1058.6,673.6,959.9,673.6z
					 M959.9,320.4c-96.1,0-174.2,78.1-174.2,174.2s78.1,174.2,174.2,174.2s174.2-78.1,174.2-174.2
					C1134.1,398.6,1056,320.4,959.9,320.4z"/>
			</g>
		</g>
	</g>
</g>
<g>
	<g>
		<g>
			<line class="st4" x1="1410.6" y1="588.2" x2="503.4" y2="588.2"/>
			<path class="st5" d="M1410.6,590.6H503.4l0,0c0-2.6,2.1-4.8,4.8-4.8h897.6C1408.4,585.8,1410.6,587.9,1410.6,590.6L1410.6,590.6z
				"/>
		</g>
		<g>
			<g>
				<g>
					<g>
						<rect x="788.5" y="464.4" class="st6" width="359.4" height="123.8"/>
						<path class="st5" d="M1150.3,590.5H786.1V462h364.2V590.5z M790.9,585.7h354.7v-119H790.9V585.7z"/>
					</g>
					<g class="st7">
						<path class="st5" d="M788.5,464.4v18.9h357.8v-18.9C1146.3,464.4,787.7,464.4,788.5,464.4z"/>
					</g>
					<g class="st7">
						<polygon class="st5" points="1019.8,465.5 1019.8,587.7 1147.9,587.7 						"/>
					</g>
					<rect x="774.3" y="432.5" class="st8" width="385.3" height="31.3"/>
					<rect x="914.3" y="389.4" class="st8" width="105" height="198"/>
					<g>
						<path class="st6" d="M982.7,586h-29v-51.3h8.7c11.2,0,20.4,9.1,20.4,20.4V586H982.7z"/>
						<path class="st5" d="M983.9,587.2h-31.4v-53.7h13.1c10.1,0,18.3,8.2,18.3,18.3L983.9,587.2L983.9,587.2z M954.8,584.9h26.7
							v-33c0-8.8-7.1-15.9-15.9-15.9h-10.7L954.8,584.9L954.8,584.9z"/>
					</g>
				</g>
				<g>
					<ellipse class="st6" cx="968.9" cy="456.9" rx="7.6" ry="11.6"/>
					<path class="st5" d="M968.9,469.7c-4.9,0-8.8-5.6-8.8-12.8c0-7.2,3.8-12.8,8.8-12.8c4.9,0,8.8,5.6,8.8,12.8
						C977.6,464.1,973.8,469.7,968.9,469.7z M968.9,446.5c-3.5,0-6.4,4.8-6.4,10.4c0,5.7,2.9,10.4,6.4,10.4s6.4-4.8,6.4-10.4
						C975.2,451.3,972.3,446.5,968.9,446.5z"/>
				</g>
				<g>
					<g>
						<rect x="862.6" y="497.7" class="st6" width="32" height="25.8"/>
						<path class="st5" d="M895.8,524.7h-34.3v-28.2h34.3V524.7z M863.8,522.3h29.6v-23.4h-29.6V522.3z"/>
					</g>
					<g class="st7">
						<path class="st5" d="M862.6,497.7l32,25.8h-32C862.6,523.5,863.1,497.3,862.6,497.7z"/>
					</g>
				</g>
				<g>
					<g>
						<rect x="1040.1" y="497.7" class="st6" width="32" height="25.8"/>
						<path class="st5" d="M1073.2,524.7h-34.3v-28.2h34.3V524.7z M1041.3,522.3h29.6v-23.4h-29.6V522.3z"/>
					</g>
					<g class="st7">
						<path class="st5" d="M1040.1,497.7l32,25.8h-32C1040.1,523.5,1040.5,497.3,1040.1,497.7z"/>
					</g>
				</g>
				<g>
					<g>
						<rect x="1093" y="497.7" class="st6" width="32" height="25.8"/>
						<path class="st5" d="M1126.2,524.7h-34.3v-28.2h34.3V524.7z M1094.2,522.3h29.6v-23.4h-29.6V522.3z"/>
					</g>
					<g class="st7">
						<path class="st5" d="M1093,497.7l32,25.8h-32C1093,523.5,1093.5,497.3,1093,497.7z"/>
					</g>
				</g>
				<g>
					<g>
						<rect x="810.8" y="497.7" class="st6" width="32" height="25.8"/>
						<path class="st5" d="M843.9,524.7h-34.3v-28.2h34.3V524.7z M812,522.3h29.6v-23.4H812V522.3z"/>
					</g>
					<g class="st7">
						<path class="st5" d="M810.8,497.7l32,25.8h-32C810.8,523.5,811.2,497.3,810.8,497.7z"/>
					</g>
				</g>
				<g>
					<g>
						<path class="st5" d="M973.5,384.5V342c0-0.7-0.5-1.2-1.2-1.2h-0.4c-0.7,0-1.2,0.5-1.2,1.2v42.5c0,0.7,0.5,1.2,1.2,1.2h0.4
							C973,385.7,973.5,385.1,973.5,384.5z"/>
					</g>
					<g>
						<path class="st6" d="M972.4,363.4c0,0-13.8-1.8-19.3,0.8c-4.7,2.3-19.1-0.8-19.1-0.8v-18.5c0,0,14.8,2.8,19.9,1.7
							c4.4-1,18.5-1.7,18.5-1.7L972.4,363.4L972.4,363.4z"/>
						<path class="st5" d="M947.6,366.2c-5.8,0-12.7-1.5-13.8-1.7l-0.9-0.2v-20.9l1.4,0.3c0.1,0,14.6,2.8,19.4,1.7
							c4.5-1,18.1-1.7,18.7-1.7l1.3-0.1v21.1l-1.3-0.2c-0.1,0-13.5-1.7-18.7,0.7C952.2,366,950,366.2,947.6,366.2z M935.2,362.4
							c4.5,0.9,14,2.3,17.4,0.7c4.8-2.3,15-1.5,18.7-1.1v-15.9c-3.5,0.2-13.5,0.8-17,1.6c-4.4,1-15.1-0.7-19-1.4v16.1H935.2z"/>
					</g>
					<g class="st7">
						<polygon class="st5" points="971,345.9 935.4,362.7 947.4,365.5 954.7,363.5 972.4,363.4 						"/>
					</g>
				</g>
				<g class="st7">
					<path class="st5" d="M954.6,534.7V586h13.1v-51.6C967.8,534.4,954.6,534.1,954.6,534.7z"/>
				</g>
				<g class="st9">
					<g>
						<g>
							<g>
								<path class="st5" d="M1045.5,512.3v3.9l2.5,1l2.9-1c0,0,2.2-0.6,2.2-2c0-1.4,0-4.1,0-4.1h-7.6
									C1045.5,510.1,1045.5,512.3,1045.5,512.3z"/>
							</g>
							<g>
								<path class="st5" d="M1048,517.3l-2.7-1v-6.4h7.9v4.3c0,0.6-0.4,1.2-1.2,1.6c-0.5,0.3-1.1,0.5-1.1,0.5L1048,517.3z
									 M1045.7,516.1l2.3,0.9l2.8-0.9c0,0,2.1-0.6,2.1-1.8v-4h-7.3L1045.7,516.1L1045.7,516.1z"/>
							</g>
						</g>
						<g>
							<g>
								<path class="st5" d="M1046.2,512.4h1v-0.7c0,0,1-0.2,0.9-0.9c-0.1-0.7,2.6,3.2,5.7-1.1h-0.8c0,0,0-3.2-4.2-2.9
									c-4.2,0.3-3.6,4.6-3.6,4.6L1046.2,512.4z"/>
							</g>
							<g>
								<path class="st5" d="M1047.3,512.6h-1.2l-1.1-1.1v-0.1c0-0.1-0.3-2.1,0.9-3.5c0.6-0.8,1.6-1.3,2.9-1.4
									c1.5-0.1,2.6,0.2,3.4,0.9c0.8,0.7,1,1.6,1,2h1l-0.2,0.3c-1.2,1.6-2.3,2.1-3.3,2.1s-1.9-0.6-2.3-0.9l-0.1-0.1
									c0,0.5-0.6,0.8-0.9,0.9v0.9H1047.3z M1046.3,512.3h0.7v-0.7h0.1c0,0,0.9-0.2,0.8-0.7c0-0.2,0-0.2,0.1-0.3
									c0.1-0.1,0.3,0,0.5,0.2c0.8,0.6,2.7,1.9,4.9-0.9h-0.6v-0.2c0,0,0-1.1-0.9-1.9c-0.7-0.6-1.8-0.9-3.1-0.8
									c-1.2,0.1-2,0.5-2.6,1.2c-1,1.2-0.8,2.8-0.8,3.2L1046.3,512.3z"/>
							</g>
						</g>
						<g>
							<g>
								<path class="st5" d="M1045.7,513.4L1045.7,513.4c-0.5,0-1-0.4-1-1l0,0c0-0.5,0.4-1,1-1l0,0c0.5,0,1,0.6,1,1.2"/>
							</g>
							<g>
								<path class="st5" d="M1045.7,513.6c-0.6,0-1.2-0.5-1.2-1.2c0-0.6,0.5-1.2,1.2-1.2c0.7,0,1.2,0.7,1.2,1.3h-0.3
									c0-0.6-0.5-1-0.8-1c-0.5,0-0.8,0.4-0.8,0.8c0,0.4,0.4,0.8,0.8,0.8v0.5H1045.7z"/>
							</g>
						</g>
						<g class="st7">
							<g>
								<path class="st5" d="M1045.6,514.3v1.8l2.6,1.1l2.5-1.1l-2.4,0.1c-0.3,0-0.5,0-0.8-0.1c-0.1,0-0.1,0-0.2-0.1
									c-0.5-0.2-0.9-0.5-1.2-1L1045.6,514.3z"/>
							</g>
						</g>
						<g>
							<g>
								<path class="st5" d="M1049.5,513.7h1.7C1051.2,513.7,1050.3,516,1049.5,513.7z"/>
							</g>
							<g>
								<path class="st5" d="M1050.3,514.8L1050.3,514.8c-0.3,0-0.6-0.4-0.9-1v-0.1h1.9v0.1C1051.2,513.8,1050.8,514.8,1050.3,514.8
									z M1049.6,513.8c0.2,0.5,0.4,0.8,0.7,0.8l0,0c0.3,0,0.6-0.5,0.8-0.8H1049.6z"/>
							</g>
						</g>
						<g class="st7">
							<path class="st5" d="M1047.4,510.3l-0.4,0.4c-0.1,0-0.7-0.3-0.7-0.4l0.3-1.3c0-0.1,0.8-1.1,0.9-1.1c0.5-0.1,2.5-0.6,3.4,0
								c0.8,0.5,1.4,1.6,1.5,2c0,0.1,0,0.2-0.1,0.2c-0.5,0.3-2.2,1.4-3.9,0.4c-0.9-0.5-1-0.6-1-0.6
								C1047.7,510,1047.6,510.2,1047.4,510.3z"/>
						</g>
					</g>
					<path class="st5" d="M1050,524.4h-4.3c-1.4,0-2.5-1.1-2.5-2.5v-3.1c0-1.4,1.1-2.5,2.5-2.5h4.3c1.4,0,2.5,1.1,2.5,2.5v3.1
						C1052.5,523.3,1051.3,524.4,1050,524.4z"/>
				</g>
				<g class="st9">
					<g>
						<g>
							<g>
								<path class="st5" d="M1057.8,512.7v3.4l2.2,0.8l2.5-0.8c0,0,2-0.5,2-1.7c0-1.2,0-3.7,0-3.7h-6.7
									C1057.8,510.7,1057.8,512.6,1057.8,512.7z"/>
							</g>
							<g>
								<path class="st5" d="M1060,517.1l-2.4-0.9v-5.7h7v3.8c0,0.6-0.4,1.1-1.1,1.4c-0.5,0.3-1,0.4-1,0.4L1060,517.1z M1057.9,516
									l2.1,0.8l2.5-0.8c0,0,1.9-0.5,1.9-1.6v-3.5h-6.4L1057.9,516L1057.9,516z"/>
							</g>
						</g>
						<g>
							<g>
								<path class="st5" d="M1058.4,512.8h0.8v-0.6c0,0,0.9-0.2,0.8-0.8c-0.1-0.7,2.3,2.8,5.1-0.9h-0.7c0,0,0-2.9-3.8-2.6
									c-3.7,0.3-3.2,4.1-3.2,4.1L1058.4,512.8z"/>
							</g>
							<g>
								<path class="st5" d="M1059.3,512.9h-1.1l-1-1l0,0c0-0.1-0.2-1.8,0.8-3.1c0.6-0.7,1.4-1.1,2.5-1.2c1.3-0.1,2.3,0.2,3,0.8
									c0.7,0.6,0.9,1.5,0.9,1.8h0.9l-0.2,0.2c-1.1,1.4-2.1,1.8-2.9,1.8c-0.9,0-1.7-0.5-2-0.8c0,0-0.1,0-0.1-0.1
									c0,0.5-0.5,0.7-0.8,0.8L1059.3,512.9L1059.3,512.9z M1058.4,512.6h0.6V512h0.1c0,0,0.8-0.1,0.7-0.7c0-0.1,0-0.2,0.1-0.2
									c0.1-0.1,0.2,0,0.5,0.2c0.7,0.5,2.4,1.7,4.4-0.8h-0.6v-0.1c0,0,0-1-0.8-1.7c-0.6-0.6-1.6-0.8-2.8-0.7
									c-1,0.1-1.8,0.4-2.3,1.1c-0.8,1-0.8,2.5-0.7,2.8L1058.4,512.6z"/>
							</g>
						</g>
						<g>
							<g>
								<path class="st5" d="M1057.9,513.7L1057.9,513.7c-0.5,0-0.9-0.4-0.9-0.9l0,0c0-0.5,0.4-0.9,0.9-0.9l0,0c0.5,0,0.9,0.5,0.9,1
									"/>
							</g>
							<g>
								<path class="st5" d="M1057.9,513.8c-0.6,0-1-0.5-1-1c0-0.6,0.5-1,1-1c0.6,0,1,0.6,1,1.2h-0.3c0-0.5-0.4-0.9-0.7-0.9
									c-0.4,0-0.7,0.3-0.7,0.7s0.3,0.7,0.7,0.7V513.8z"/>
							</g>
						</g>
						<g class="st7">
							<g>
								<path class="st5" d="M1057.8,514.5v1.6l2.3,1l2.2-1l-2.1,0.1c-0.2,0-0.5,0-0.7-0.1c-0.1,0-0.1,0-0.2-0.1
									c-0.4-0.2-0.8-0.5-1.1-0.9L1057.8,514.5z"/>
							</g>
						</g>
						<g>
							<g>
								<path class="st5" d="M1061.3,513.9h1.5C1062.8,513.9,1062,515.9,1061.3,513.9z"/>
							</g>
							<g>
								<path class="st5" d="M1062,514.9L1062,514.9c-0.3,0-0.5-0.3-0.8-0.9v-0.1h1.7v0.1C1062.8,514,1062.5,514.9,1062,514.9z
									 M1061.4,514c0.2,0.5,0.4,0.7,0.6,0.7l0,0c0.3,0,0.6-0.5,0.7-0.7H1061.4z"/>
							</g>
						</g>
					</g>
					<path class="st5" d="M1061.4,523.4h-3.3c-1.4,0-2.5-1.1-2.5-2.5v-2.2c0-1.4,1.1-2.5,2.5-2.5h3.3c1.4,0,2.5,1.1,2.5,2.5v2.2
						C1063.9,522.3,1062.8,523.4,1061.4,523.4z"/>
				</g>
				<g class="st9">
					<g>
						<g>
							<g>
								<path class="st5" d="M864.3,512.3v3.9l2.5,1l2.9-1c0,0,2.2-0.6,2.2-2c0-1.4,0-4.1,0-4.1h-7.6
									C864.3,510.1,864.3,512.3,864.3,512.3z"/>
							</g>
							<g>
								<path class="st5" d="M866.8,517.3l-2.7-1v-6.4h7.9v4.3c0,0.6-0.4,1.2-1.2,1.6c-0.5,0.3-1.1,0.5-1.1,0.5L866.8,517.3z
									 M864.5,516.1l2.3,0.9l2.8-0.9c0,0,2.1-0.6,2.1-1.8v-4h-7.3v5.8H864.5z"/>
							</g>
						</g>
						<g>
							<g>
								<path class="st5" d="M864.9,512.4h1v-0.7c0,0,1-0.2,0.9-0.9c-0.1-0.7,2.6,3.2,5.7-1.1h-0.8c0,0,0-3.2-4.2-2.9
									c-4.2,0.3-3.6,4.6-3.6,4.6L864.9,512.4z"/>
							</g>
							<g>
								<path class="st5" d="M866,512.6h-1.2l-1.1-1.1v-0.1c0-0.1-0.3-2.1,0.9-3.5c0.6-0.8,1.6-1.3,2.9-1.4c1.5-0.1,2.6,0.2,3.4,0.9
									c0.8,0.7,1,1.6,1,2h1l-0.2,0.3c-1.2,1.6-2.3,2.1-3.3,2.1s-1.9-0.6-2.3-0.9l-0.1-0.1c0,0.5-0.6,0.8-0.9,0.9v0.9H866z
									 M865,512.3h0.7v-0.7h0.1c0,0,0.9-0.2,0.8-0.7c0-0.2,0-0.2,0.1-0.3c0.1-0.1,0.3,0,0.5,0.2c0.8,0.6,2.7,1.9,4.9-0.9h-0.6
									v-0.2c0,0,0-1.1-0.9-1.9c-0.7-0.6-1.8-0.9-3.1-0.8c-1.2,0.1-2,0.5-2.6,1.2c-1,1.2-0.8,2.8-0.8,3.2L865,512.3z"/>
							</g>
						</g>
						<g>
							<g>
								<path class="st5" d="M864.5,513.4L864.5,513.4c-0.5,0-1-0.4-1-1l0,0c0-0.5,0.4-1,1-1l0,0c0.5,0,1,0.6,1,1.2"/>
							</g>
							<g>
								<path class="st5" d="M864.5,513.6c-0.6,0-1.2-0.5-1.2-1.2c0-0.6,0.5-1.2,1.2-1.2s1.2,0.7,1.2,1.3h-0.3c0-0.6-0.5-1-0.8-1
									c-0.5,0-0.8,0.4-0.8,0.8c0,0.4,0.4,0.8,0.8,0.8v0.5H864.5z"/>
							</g>
						</g>
						<g class="st7">
							<g>
								<path class="st5" d="M864.3,514.3v1.8l2.6,1.1l2.5-1.1l-2.4,0.1c-0.3,0-0.5,0-0.8-0.1c-0.1,0-0.1,0-0.2-0.1
									c-0.5-0.2-0.9-0.5-1.2-1L864.3,514.3z"/>
							</g>
						</g>
						<g>
							<g>
								<path class="st5" d="M868.2,513.7h1.7C869.9,513.7,869,516,868.2,513.7z"/>
							</g>
							<g>
								<path class="st5" d="M869,514.8L869,514.8c-0.3,0-0.6-0.4-0.9-1v-0.1h1.9v0.1C870,513.8,869.6,514.8,869,514.8z
									 M868.4,513.8c0.2,0.5,0.4,0.8,0.7,0.8l0,0c0.3,0,0.6-0.5,0.8-0.8H868.4z"/>
							</g>
						</g>
						<g class="st7">
							<path class="st5" d="M866.2,510.3l-0.4,0.4c-0.1,0-0.7-0.3-0.7-0.4l0.3-1.3c0-0.1,0.8-1.1,0.9-1.1c0.5-0.1,2.5-0.6,3.4,0
								c0.8,0.5,1.4,1.6,1.5,2c0,0.1,0,0.2-0.1,0.2c-0.5,0.3-2.2,1.4-3.9,0.4c-0.9-0.5-1-0.6-1-0.6
								C866.4,510,866.4,510.2,866.2,510.3z"/>
						</g>
					</g>
					<path class="st5" d="M868.7,524.4h-4.3c-1.4,0-2.5-1.1-2.5-2.5v-3.1c0-1.4,1.1-2.5,2.5-2.5h4.3c1.4,0,2.5,1.1,2.5,2.5v3.1
						C871.2,523.3,870.1,524.4,868.7,524.4z"/>
				</g>
				<g class="st9">
					<g>
						<g>
							<g>
								<path class="st5" d="M876.5,512.7v3.4l2.2,0.8l2.5-0.8c0,0,2-0.5,2-1.7c0-1.2,0-3.7,0-3.7h-6.7
									C876.5,510.7,876.5,512.6,876.5,512.7z"/>
							</g>
							<g>
								<path class="st5" d="M878.7,517.1l-2.4-0.9v-5.7h7v3.8c0,0.6-0.4,1.1-1.1,1.4c-0.5,0.3-1,0.4-1,0.4L878.7,517.1z M876.7,516
									l2.1,0.8l2.5-0.8c0,0,1.9-0.5,1.9-1.6v-3.5h-6.4L876.7,516L876.7,516z"/>
							</g>
						</g>
						<g>
							<g>
								<path class="st5" d="M877.1,512.8h0.8v-0.6c0,0,0.9-0.2,0.8-0.8c-0.1-0.7,2.3,2.8,5.1-0.9h-0.7c0,0,0-2.9-3.8-2.6
									c-3.7,0.3-3.2,4.1-3.2,4.1L877.1,512.8z"/>
							</g>
							<g>
								<path class="st5" d="M878.1,512.9H877l-1-1l0,0c0-0.1-0.2-1.8,0.8-3.1c0.6-0.7,1.4-1.1,2.5-1.2c1.3-0.1,2.3,0.2,3,0.8
									c0.7,0.6,0.9,1.5,0.9,1.8h0.9l-0.2,0.2c-1.1,1.4-2.1,1.8-2.9,1.8c-0.9,0-1.7-0.5-2-0.8c0,0-0.1,0-0.1-0.1
									c0,0.5-0.5,0.7-0.8,0.8L878.1,512.9L878.1,512.9z M877.2,512.6h0.6V512h0.1c0,0,0.8-0.1,0.7-0.7c0-0.1,0-0.2,0.1-0.2
									c0.1-0.1,0.2,0,0.5,0.2c0.7,0.5,2.4,1.7,4.4-0.8H883v-0.1c0,0,0-1-0.8-1.7c-0.6-0.6-1.6-0.8-2.8-0.7c-1,0.1-1.8,0.4-2.3,1.1
									c-0.8,1-0.8,2.5-0.7,2.8L877.2,512.6z"/>
							</g>
						</g>
						<g>
							<g>
								<path class="st5" d="M876.7,513.7L876.7,513.7c-0.5,0-0.9-0.4-0.9-0.9l0,0c0-0.5,0.4-0.9,0.9-0.9l0,0c0.5,0,0.9,0.5,0.9,1"
									/>
							</g>
							<g>
								<path class="st5" d="M876.7,513.8c-0.6,0-1-0.5-1-1c0-0.6,0.5-1,1-1c0.6,0,1,0.6,1,1.2h-0.3c0-0.5-0.4-0.9-0.7-0.9
									c-0.4,0-0.7,0.3-0.7,0.7s0.3,0.7,0.7,0.7V513.8z"/>
							</g>
						</g>
						<g class="st7">
							<g>
								<path class="st5" d="M876.6,514.5v1.6l2.3,1l2.2-1l-2.1,0.1c-0.2,0-0.5,0-0.7-0.1c-0.1,0-0.1,0-0.2-0.1
									c-0.4-0.2-0.8-0.5-1.1-0.9L876.6,514.5z"/>
							</g>
						</g>
						<g>
							<g>
								<path class="st5" d="M880,513.9h1.5C881.5,513.9,880.7,515.9,880,513.9z"/>
							</g>
							<g>
								<path class="st5" d="M880.7,514.9L880.7,514.9c-0.3,0-0.5-0.3-0.8-0.9v-0.1h1.7v0.1C881.6,514,881.2,514.9,880.7,514.9z
									 M880.1,514c0.2,0.5,0.4,0.7,0.6,0.7l0,0c0.3,0,0.6-0.5,0.7-0.7H880.1z"/>
							</g>
						</g>
					</g>
					<path class="st5" d="M880.2,523.4h-3.3c-1.4,0-2.5-1.1-2.5-2.5v-2.2c0-1.4,1.1-2.5,2.5-2.5h3.3c1.4,0,2.5,1.1,2.5,2.5v2.2
						C882.7,522.3,881.5,523.4,880.2,523.4z"/>
				</g>
				<g class="st9">
					<g>
						<g>
							<g>
								<path class="st5" d="M834.5,512.7v3.4l2.2,0.8l2.5-0.8c0,0,2-0.5,2-1.7c0-1.2,0-3.7,0-3.7h-6.7
									C834.5,510.7,834.5,512.6,834.5,512.7z"/>
							</g>
							<g>
								<path class="st5" d="M836.7,517.1l-2.4-0.9v-5.7h7v3.8c0,0.6-0.4,1.1-1.1,1.4c-0.5,0.3-1,0.4-1,0.4L836.7,517.1z M834.7,516
									l2.1,0.8l2.5-0.8c0,0,1.9-0.5,1.9-1.6v-3.5h-6.4L834.7,516L834.7,516z"/>
							</g>
						</g>
						<g>
							<g>
								<path class="st5" d="M835.1,512.8h0.8v-0.6c0,0,0.9-0.2,0.8-0.8c-0.1-0.7,2.3,2.8,5.1-0.9h-0.7c0,0,0-2.9-3.8-2.6
									c-3.7,0.3-3.2,4.1-3.2,4.1L835.1,512.8z"/>
							</g>
							<g>
								<path class="st5" d="M836.1,512.9H835l-1-1l0,0c0-0.1-0.2-1.8,0.8-3.1c0.6-0.7,1.4-1.1,2.5-1.2c1.3-0.1,2.3,0.2,3,0.8
									c0.7,0.6,0.9,1.5,0.9,1.8h0.9l-0.2,0.2c-1.1,1.4-2.1,1.8-2.9,1.8c-0.9,0-1.7-0.5-2-0.8c0,0-0.1,0-0.1-0.1
									c0,0.5-0.5,0.7-0.8,0.8L836.1,512.9L836.1,512.9z M835.2,512.6h0.6V512h0.1c0,0,0.8-0.1,0.7-0.7c0-0.1,0-0.2,0.1-0.2
									c0.1-0.1,0.2,0,0.5,0.2c0.7,0.5,2.4,1.7,4.4-0.8H841v-0.1c0,0,0-1-0.8-1.7c-0.6-0.6-1.6-0.8-2.8-0.7c-1,0.1-1.8,0.4-2.3,1.1
									c-0.8,1-0.8,2.5-0.7,2.8L835.2,512.6z"/>
							</g>
						</g>
						<g>
							<g>
								<path class="st5" d="M834.7,513.7L834.7,513.7c-0.5,0-0.9-0.4-0.9-0.9l0,0c0-0.5,0.4-0.9,0.9-0.9l0,0c0.5,0,0.9,0.5,0.9,1"
									/>
							</g>
							<g>
								<path class="st5" d="M834.7,513.8c-0.6,0-1-0.5-1-1c0-0.6,0.5-1,1-1c0.6,0,1,0.6,1,1.2h-0.3c0-0.5-0.4-0.9-0.7-0.9
									c-0.4,0-0.7,0.3-0.7,0.7s0.3,0.7,0.7,0.7V513.8z"/>
							</g>
						</g>
						<g class="st7">
							<g>
								<path class="st5" d="M834.6,514.5v1.6l2.3,1l2.2-1l-2.1,0.1c-0.2,0-0.5,0-0.7-0.1c-0.1,0-0.1,0-0.2-0.1
									c-0.4-0.2-0.8-0.5-1.1-0.9L834.6,514.5z"/>
							</g>
						</g>
						<g>
							<g>
								<path class="st5" d="M838,513.9h1.5C839.5,513.9,838.7,515.9,838,513.9z"/>
							</g>
							<g>
								<path class="st5" d="M838.7,514.9L838.7,514.9c-0.3,0-0.5-0.3-0.8-0.9v-0.1h1.7v0.1C839.6,514,839.2,514.9,838.7,514.9z
									 M838.1,514c0.2,0.5,0.4,0.7,0.6,0.7l0,0c0.3,0,0.6-0.5,0.7-0.7H838.1z"/>
							</g>
						</g>
					</g>
					<path class="st5" d="M838.2,523.4h-3.3c-1.4,0-2.5-1.1-2.5-2.5v-2.2c0-1.4,1.1-2.5,2.5-2.5h3.3c1.4,0,2.5,1.1,2.5,2.5v2.2
						C840.7,522.3,839.5,523.4,838.2,523.4z"/>
				</g>
				<g class="st9">
					<g>
						<g>
							<g>
								<path class="st5" d="M823.2,512.7v3.4l2.2,0.8l2.5-0.8c0,0,2-0.5,2-1.7c0-1.2,0-3.7,0-3.7h-6.7
									C823.2,510.7,823.2,512.6,823.2,512.7z"/>
							</g>
							<g>
								<path class="st5" d="M825.4,517.1l-2.4-0.9v-5.7h7v3.8c0,0.6-0.4,1.1-1.1,1.4c-0.5,0.3-1,0.4-1,0.4L825.4,517.1z M823.3,516
									l2.1,0.8l2.5-0.8c0,0,1.9-0.5,1.9-1.6v-3.5h-6.4L823.3,516L823.3,516z"/>
							</g>
						</g>
						<g>
							<g>
								<path class="st5" d="M823.7,512.8h0.8v-0.6c0,0,0.9-0.2,0.8-0.8c-0.1-0.7,2.3,2.8,5.1-0.9h-0.7c0,0,0-2.9-3.8-2.6
									c-3.7,0.3-3.2,4.1-3.2,4.1L823.7,512.8z"/>
							</g>
							<g>
								<path class="st5" d="M824.7,512.9h-1.1l-1-1l0,0c0-0.1-0.2-1.8,0.8-3.1c0.6-0.7,1.4-1.1,2.5-1.2c1.3-0.1,2.3,0.2,3,0.8
									c0.7,0.6,0.9,1.5,0.9,1.8h0.9l-0.2,0.2c-1.1,1.4-2.1,1.8-2.9,1.8c-0.9,0-1.7-0.5-2-0.8c0,0-0.1,0-0.1-0.1
									c0,0.5-0.5,0.7-0.8,0.8L824.7,512.9L824.7,512.9z M823.8,512.6h0.6V512h0.1c0,0,0.8-0.1,0.7-0.7c0-0.1,0-0.2,0.1-0.2
									c0.1-0.1,0.2,0,0.5,0.2c0.7,0.5,2.4,1.7,4.4-0.8h-0.6v-0.1c0,0,0-1-0.8-1.7c-0.6-0.6-1.6-0.8-2.8-0.7
									c-1,0.1-1.8,0.4-2.3,1.1c-0.8,1-0.8,2.5-0.7,2.8L823.8,512.6z"/>
							</g>
						</g>
						<g>
							<g>
								<path class="st5" d="M823.3,513.7L823.3,513.7c-0.5,0-0.9-0.4-0.9-0.9l0,0c0-0.5,0.4-0.9,0.9-0.9l0,0c0.5,0,0.9,0.5,0.9,1"
									/>
							</g>
							<g>
								<path class="st5" d="M823.3,513.8c-0.6,0-1-0.5-1-1c0-0.6,0.5-1,1-1c0.6,0,1,0.6,1,1.2H824c0-0.5-0.4-0.9-0.7-0.9
									c-0.4,0-0.7,0.3-0.7,0.7s0.3,0.7,0.7,0.7V513.8z"/>
							</g>
						</g>
						<g class="st7">
							<g>
								<path class="st5" d="M823.2,514.5v1.6l2.3,1l2.2-1l-2.1,0.1c-0.2,0-0.5,0-0.7-0.1c-0.1,0-0.1,0-0.2-0.1
									c-0.4-0.2-0.8-0.5-1.1-0.9L823.2,514.5z"/>
							</g>
						</g>
						<g>
							<g>
								<path class="st5" d="M826.7,513.9h1.5C828.2,513.9,827.4,515.9,826.7,513.9z"/>
							</g>
							<g>
								<path class="st5" d="M827.4,514.9L827.4,514.9c-0.3,0-0.5-0.3-0.8-0.9v-0.1h1.7v0.1C828.2,514,827.9,514.9,827.4,514.9z
									 M826.8,514c0.2,0.5,0.4,0.7,0.6,0.7l0,0c0.3,0,0.6-0.5,0.7-0.7H826.8z"/>
							</g>
						</g>
					</g>
					<path class="st5" d="M826.8,523.4h-3.3c-1.4,0-2.5-1.1-2.5-2.5v-2.2c0-1.4,1.1-2.5,2.5-2.5h3.3c1.4,0,2.5,1.1,2.5,2.5v2.2
						C829.3,522.3,828.2,523.4,826.8,523.4z"/>
				</g>
				<g class="st9">
					<g>
						<g>
							<g>
								<path class="st5" d="M814,511v4l2.6,1l2.9-1c0,0,2.3-0.6,2.3-2c0-1.4,0-4.3,0-4.3H814C814,508.7,814,510.9,814,511z"/>
							</g>
							<g>
								<path class="st5" d="M816.6,516.1l-2.7-1v-6.6h8.2v4.4c0,0.6-0.4,1.2-1.2,1.7c-0.6,0.3-1.1,0.5-1.2,0.5L816.6,516.1z
									 M814.2,514.8l2.4,0.9l2.9-1c0,0,2.2-0.6,2.2-1.8v-4.1h-7.5L814.2,514.8L814.2,514.8z"/>
							</g>
						</g>
						<g>
							<g>
								<path class="st5" d="M814.7,511.1h1v-0.7c0,0,1.1-0.2,1-1s2.6,3.3,5.9-1.1h-0.8c0,0,0-3.3-4.4-3c-4.3,0.3-3.7,4.8-3.7,4.8
									L814.7,511.1z"/>
							</g>
							<g>
								<path class="st5" d="M815.8,511.2h-1.2l-1.1-1.1V510c0-0.1-0.3-2.1,0.9-3.6c0.7-0.8,1.7-1.3,3-1.4c1.5-0.1,2.7,0.2,3.5,0.9
									c0.8,0.7,1,1.7,1,2.1h1l-0.2,0.3c-1.2,1.6-2.4,2.1-3.4,2.1c-1.1,0-1.9-0.6-2.4-0.9l-0.1-0.1c0,0.5-0.6,0.8-1,0.9V511.2z
									 M814.7,510.9h0.7v-0.7h0.1c0,0,0.9-0.2,0.8-0.8c0-0.2,0-0.2,0.1-0.3c0.1-0.1,0.3,0,0.6,0.2c0.8,0.6,2.8,1.9,5.1-0.9h-0.7
									v-0.2c0,0,0-1.2-0.9-2c-0.7-0.7-1.8-0.9-3.2-0.8c-1.2,0.1-2.1,0.5-2.7,1.3c-1,1.2-0.9,2.9-0.8,3.3L814.7,510.9z"/>
							</g>
						</g>
						<g>
							<g>
								<path class="st5" d="M814.2,512.1L814.2,512.1c-0.6,0-1-0.5-1-1l0,0c0-0.6,0.5-1,1-1l0,0c0.6,0,1,0.6,1,1.2"/>
							</g>
							<g>
								<path class="st5" d="M814.2,512.3c-0.7,0-1.2-0.5-1.2-1.2s0.5-1.2,1.2-1.2s1.2,0.7,1.2,1.4h-0.3c0-0.6-0.5-1-0.9-1
									c-0.5,0-0.9,0.4-0.9,0.9s0.4,0.9,0.9,0.9V512.3z"/>
							</g>
						</g>
						<g class="st7">
							<g>
								<path class="st5" d="M814.1,513v1.9l2.7,1.1l2.6-1.1l-2.5,0.1c-0.3,0-0.5,0-0.8-0.1c-0.1,0-0.1,0-0.2-0.1
									c-0.5-0.2-0.9-0.6-1.2-1L814.1,513z"/>
							</g>
						</g>
						<g>
							<g>
								<path class="st5" d="M818.1,512.4h1.7C819.8,512.4,818.9,514.7,818.1,512.4z"/>
							</g>
							<g>
								<path class="st5" d="M818.9,513.5L818.9,513.5c-0.3,0-0.6-0.4-0.9-1.1v-0.1h2v0.1C819.9,512.5,819.5,513.5,818.9,513.5z
									 M818.2,512.5c0.2,0.6,0.4,0.8,0.7,0.8l0,0c0.3,0,0.6-0.5,0.8-0.8H818.2z"/>
							</g>
						</g>
					</g>
					<path class="st5" d="M818.6,523.4H814c-1.4,0-2.5-1.1-2.5-2.5v-3.3c0-1.4,1.1-2.5,2.5-2.5h4.6c1.4,0,2.5,1.1,2.5,2.5v3.3
						C821.1,522.3,820,523.4,818.6,523.4z"/>
				</g>
				<g class="st9">
					<g>
						<g>
							<g>
								<path class="st5" d="M887.3,512.7v3.4l2.2,0.8l2.5-0.8c0,0,2-0.5,2-1.7c0-1.2,0-3.7,0-3.7h-6.7
									C887.3,510.7,887.3,512.6,887.3,512.7z"/>
							</g>
							<g>
								<path class="st5" d="M889.5,517.1l-2.4-0.9v-5.7h7v3.8c0,0.6-0.4,1.1-1.1,1.4c-0.5,0.3-1,0.4-1,0.4L889.5,517.1z M887.5,516
									l2.1,0.8l2.5-0.8c0,0,1.9-0.5,1.9-1.6v-3.5h-6.4L887.5,516L887.5,516z"/>
							</g>
						</g>
						<g>
							<g>
								<path class="st5" d="M887.9,512.8h0.8v-0.6c0,0,0.9-0.2,0.8-0.8c-0.1-0.7,2.3,2.8,5.1-0.9h-0.7c0,0,0-2.9-3.8-2.6
									c-3.7,0.3-3.2,4.1-3.2,4.1L887.9,512.8z"/>
							</g>
							<g>
								<path class="st5" d="M888.9,512.9h-1.1l-1-1l0,0c0-0.1-0.2-1.8,0.8-3.1c0.6-0.7,1.4-1.1,2.5-1.2c1.3-0.1,2.3,0.2,3,0.8
									c0.7,0.6,0.9,1.5,0.9,1.8h0.9l-0.2,0.2c-1.1,1.4-2.1,1.8-2.9,1.8c-0.9,0-1.7-0.5-2-0.8c0,0-0.1,0-0.1-0.1
									c0,0.5-0.5,0.7-0.8,0.8L888.9,512.9L888.9,512.9z M888,512.6h0.6V512h0.1c0,0,0.8-0.1,0.7-0.7c0-0.1,0-0.2,0.1-0.2
									c0.1-0.1,0.2,0,0.5,0.2c0.7,0.5,2.4,1.7,4.4-0.8h-0.6v-0.1c0,0,0-1-0.8-1.7c-0.6-0.6-1.6-0.8-2.8-0.7
									c-1,0.1-1.8,0.4-2.3,1.1c-0.8,1-0.8,2.5-0.7,2.8L888,512.6z"/>
							</g>
						</g>
						<g>
							<g>
								<path class="st5" d="M887.5,513.7L887.5,513.7c-0.5,0-0.9-0.4-0.9-0.9l0,0c0-0.5,0.4-0.9,0.9-0.9l0,0c0.5,0,0.9,0.5,0.9,1"
									/>
							</g>
							<g>
								<path class="st5" d="M887.5,513.8c-0.6,0-1-0.5-1-1c0-0.6,0.5-1,1-1c0.6,0,1,0.6,1,1.2h-0.3c0-0.5-0.4-0.9-0.7-0.9
									c-0.4,0-0.7,0.3-0.7,0.7s0.3,0.7,0.7,0.7V513.8z"/>
							</g>
						</g>
						<g class="st7">
							<g>
								<path class="st5" d="M887.4,514.5v1.6l2.3,1l2.2-1l-2.1,0.1c-0.2,0-0.5,0-0.7-0.1c-0.1,0-0.1,0-0.2-0.1
									c-0.4-0.2-0.8-0.5-1.1-0.9L887.4,514.5z"/>
							</g>
						</g>
						<g>
							<g>
								<path class="st5" d="M890.8,513.9h1.5C892.3,513.9,891.5,515.9,890.8,513.9z"/>
							</g>
							<g>
								<path class="st5" d="M891.5,514.9L891.5,514.9c-0.3,0-0.5-0.3-0.8-0.9v-0.1h1.7v0.1C892.4,514,892,514.9,891.5,514.9z
									 M890.9,514c0.2,0.5,0.4,0.7,0.6,0.7l0,0c0.3,0,0.6-0.5,0.7-0.7H890.9z"/>
							</g>
						</g>
					</g>
					<path class="st5" d="M891,523.4h-3.3c-1.4,0-2.5-1.1-2.5-2.5v-2.2c0-1.4,1.1-2.5,2.5-2.5h3.3c1.4,0,2.5,1.1,2.5,2.5v2.2
						C893.5,522.3,892.3,523.4,891,523.4z"/>
				</g>
				<g class="st9">
					<g>
						<g>
							<g>
								<path class="st5" d="M1098.4,512.3v3.9l2.5,1l2.9-1c0,0,2.2-0.6,2.2-2c0-1.4,0-4.1,0-4.1h-7.6
									C1098.4,510.1,1098.4,512.3,1098.4,512.3z"/>
							</g>
							<g>
								<path class="st5" d="M1100.9,517.3l-2.7-1v-6.4h7.9v4.3c0,0.6-0.4,1.2-1.2,1.6c-0.5,0.3-1.1,0.5-1.1,0.5L1100.9,517.3z
									 M1098.6,516.1l2.3,0.9l2.8-0.9c0,0,2.1-0.6,2.1-1.8v-4h-7.3v5.8H1098.6z"/>
							</g>
						</g>
						<g>
							<g>
								<path class="st5" d="M1099,512.4h1v-0.7c0,0,1-0.2,0.9-0.9c-0.1-0.7,2.6,3.2,5.7-1.1h-0.8c0,0,0-3.2-4.2-2.9
									c-4.2,0.3-3.6,4.6-3.6,4.6L1099,512.4z"/>
							</g>
							<g>
								<path class="st5" d="M1100.2,512.6h-1.2l-1.1-1.1v-0.1c0-0.1-0.3-2.1,0.9-3.5c0.6-0.8,1.6-1.3,2.9-1.4
									c1.5-0.1,2.6,0.2,3.4,0.9c0.8,0.7,1,1.6,1,2h1l-0.2,0.3c-1.2,1.6-2.3,2.1-3.3,2.1s-1.9-0.6-2.3-0.9l-0.1-0.1
									c0,0.5-0.6,0.8-0.9,0.9v0.9H1100.2z M1099.1,512.3h0.7v-0.7h0.1c0,0,0.9-0.2,0.8-0.7c0-0.2,0-0.2,0.1-0.3
									c0.1-0.1,0.3,0,0.5,0.2c0.8,0.6,2.7,1.9,4.9-0.9h-0.6v-0.2c0,0,0-1.1-0.9-1.9c-0.7-0.6-1.8-0.9-3.1-0.8
									c-1.2,0.1-2,0.5-2.6,1.2c-1,1.2-0.8,2.8-0.8,3.2L1099.1,512.3z"/>
							</g>
						</g>
						<g>
							<g>
								<path class="st5" d="M1098.6,513.4L1098.6,513.4c-0.5,0-1-0.4-1-1l0,0c0-0.5,0.4-1,1-1l0,0c0.5,0,1,0.6,1,1.2"/>
							</g>
							<g>
								<path class="st5" d="M1098.6,513.6c-0.6,0-1.2-0.5-1.2-1.2c0-0.6,0.5-1.2,1.2-1.2c0.7,0,1.2,0.7,1.2,1.3h-0.3
									c0-0.6-0.5-1-0.8-1c-0.5,0-0.8,0.4-0.8,0.8c0,0.4,0.4,0.8,0.8,0.8L1098.6,513.6L1098.6,513.6z"/>
							</g>
						</g>
						<g class="st7">
							<g>
								<path class="st5" d="M1098.4,514.3v1.8l2.6,1.1l2.5-1.1l-2.4,0.1c-0.3,0-0.5,0-0.8-0.1c-0.1,0-0.1,0-0.2-0.1
									c-0.5-0.2-0.9-0.5-1.2-1L1098.4,514.3z"/>
							</g>
						</g>
						<g>
							<g>
								<path class="st5" d="M1102.4,513.7h1.7C1104,513.7,1103.1,516,1102.4,513.7z"/>
							</g>
							<g>
								<path class="st5" d="M1103.1,514.8L1103.1,514.8c-0.3,0-0.6-0.4-0.9-1v-0.1h1.9v0.1C1104.1,513.8,1103.7,514.8,1103.1,514.8
									z M1102.5,513.8c0.2,0.5,0.4,0.8,0.7,0.8l0,0c0.3,0,0.6-0.5,0.8-0.8H1102.5z"/>
							</g>
						</g>
						<g class="st7">
							<path class="st5" d="M1100.3,510.3l-0.4,0.4c-0.1,0-0.7-0.3-0.7-0.4l0.3-1.3c0-0.1,0.8-1.1,0.9-1.1c0.5-0.1,2.5-0.6,3.4,0
								c0.8,0.5,1.4,1.6,1.5,2c0,0.1,0,0.2-0.1,0.2c-0.5,0.3-2.2,1.4-3.9,0.4c-0.9-0.5-1-0.6-1-0.6
								C1100.5,510,1100.5,510.2,1100.3,510.3z"/>
						</g>
					</g>
					<path class="st5" d="M1102.8,524.4h-4.3c-1.4,0-2.5-1.1-2.5-2.5v-3.1c0-1.4,1.1-2.5,2.5-2.5h4.3c1.4,0,2.5,1.1,2.5,2.5v3.1
						C1105.3,523.3,1104.2,524.4,1102.8,524.4z"/>
				</g>
				<g class="st9">
					<g>
						<g>
							<g>
								<path class="st5" d="M1108.5,514.3v3.2l2.1,0.8l2.4-0.8c0,0,1.9-0.5,1.9-1.6c0-1.1,0-3.5,0-3.5h-6.4
									C1108.5,512.4,1108.5,514.2,1108.5,514.3z"/>
							</g>
							<g>
								<path class="st5" d="M1110.6,518.5l-2.2-0.9v-5.3h6.6v3.6c0,0.5-0.3,1-1,1.4c-0.5,0.3-0.9,0.4-1,0.4L1110.6,518.5z
									 M1108.7,517.4l2,0.7l2.4-0.8c0,0,1.8-0.5,1.8-1.5v-3.3h-6.1v4.9H1108.7z"/>
							</g>
						</g>
						<g>
							<g>
								<path class="st5" d="M1109.1,514.4h0.8v-0.6c0,0,0.9-0.2,0.8-0.8s2.1,2.7,4.8-0.9h-0.7c0,0,0-2.7-3.5-2.4
									c-3.5,0.3-3,3.9-3,3.9L1109.1,514.4z"/>
							</g>
							<g>
								<path class="st5" d="M1110,514.5h-1l-0.9-0.9l0,0c0-0.1-0.2-1.7,0.7-2.9c0.5-0.7,1.4-1.1,2.4-1.1c1.2-0.1,2.2,0.2,2.8,0.8
									c0.7,0.6,0.8,1.4,0.8,1.7h0.8l-0.2,0.2c-1,1.3-2,1.7-2.8,1.7c-0.9,0-1.6-0.5-1.9-0.7c0,0-0.1,0-0.1-0.1
									c0,0.4-0.5,0.7-0.8,0.8v0.5H1110z M1109.1,514.2h0.6v-0.6h0.1c0,0,0.7-0.1,0.7-0.6c0-0.1,0-0.2,0.1-0.2
									c0.1-0.1,0.2,0,0.5,0.2c0.7,0.5,2.3,1.6,4.1-0.7h-0.5v-0.1c0,0,0-0.9-0.8-1.6c-0.6-0.5-1.5-0.8-2.6-0.7
									c-1,0.1-1.7,0.4-2.2,1c-0.8,1-0.7,2.4-0.7,2.7L1109.1,514.2z"/>
							</g>
						</g>
						<g>
							<g>
								<path class="st5" d="M1108.7,515.2L1108.7,515.2c-0.5,0-0.8-0.4-0.8-0.8l0,0c0-0.5,0.4-0.8,0.8-0.8l0,0c0.5,0,0.8,0.5,0.8,1
									"/>
							</g>
							<g>
								<path class="st5" d="M1108.7,515.3c-0.5,0-1-0.4-1-1s0.4-1,1-1s1,0.6,1,1.1h-0.3c0-0.5-0.4-0.8-0.7-0.8
									c-0.4,0-0.7,0.3-0.7,0.7s0.3,0.7,0.7,0.7V515.3z"/>
							</g>
						</g>
						<g class="st7">
							<g>
								<path class="st5" d="M1108.6,516v1.5l2.2,0.9l2.1-0.9l-2,0.1c-0.2,0-0.4,0-0.6-0.1c-0.1,0-0.1,0-0.2-0.1
									c-0.4-0.2-0.8-0.5-1-0.8L1108.6,516z"/>
							</g>
						</g>
						<g>
							<g>
								<path class="st5" d="M1111.8,515.5h1.4C1113.3,515.5,1112.5,517.3,1111.8,515.5z"/>
							</g>
							<g>
								<path class="st5" d="M1112.5,516.4L1112.5,516.4c-0.3,0-0.5-0.3-0.7-0.9v-0.1h1.6v0.1C1113.3,515.5,1113,516.4,1112.5,516.4
									z M1111.9,515.5c0.2,0.4,0.4,0.7,0.6,0.7l0,0c0.3,0,0.5-0.4,0.6-0.7H1111.9z"/>
							</g>
						</g>
						<g class="st7">
							<path class="st5" d="M1110.1,512.5l-0.4,0.3c-0.1,0-0.6-0.2-0.6-0.3l0.3-1.1c0-0.1,0.7-0.9,0.7-0.9c0.4-0.1,2.1-0.5,2.8,0
								c0.7,0.5,1.1,1.4,1.3,1.7c0,0.1,0,0.2-0.1,0.2c-0.4,0.3-1.9,1.1-3.2,0.3c-0.7-0.4-0.9-0.5-0.8-0.5
								C1110.3,512.3,1110.3,512.5,1110.1,512.5z"/>
						</g>
					</g>
					<path class="st5" d="M1111.8,524.4h-2.8c-1.4,0-2.5-1.1-2.5-2.5v-1.8c0-1.4,1.1-2.5,2.5-2.5h2.8c1.4,0,2.5,1.1,2.5,2.5v1.8
						C1114.3,523.3,1113.2,524.4,1111.8,524.4z"/>
				</g>
			</g>
			<g>
				<g>
					<path class="st10" d="M759.6,589.1"/>
				</g>
				<g>
					<path class="st10" d="M735.7,589.1"/>
				</g>
				<g>
					<g>
						<polygon class="st6" points="727.5,577.3 748.1,498.6 768.8,577.3 						"/>
						<path class="st5" d="M770.3,578.5h-44.4l22.2-84.6L770.3,578.5z M729,576.1h38.2l-19.1-72.8L729,576.1z"/>
					</g>
					<g>
						<line class="st4" x1="747.9" y1="541.6" x2="747.9" y2="589.9"/>
						<rect x="746.7" y="541.6" class="st5" width="2.4" height="48.3"/>
					</g>
					<g>
						<line class="st4" x1="758.1" y1="557.5" x2="747.7" y2="567.9"/>
						
							<rect x="751.7" y="555.4" transform="matrix(-0.7071 -0.7071 0.7071 -0.7071 887.3562 1493.0044)" class="st5" width="2.4" height="14.7"/>
					</g>
					<g>
						<line class="st4" x1="741.6" y1="546.3" x2="748.2" y2="552.9"/>
						
							<rect x="740.2" y="548.4" transform="matrix(-0.7072 -0.7071 0.7071 -0.7072 882.9872 1465.0031)" class="st5" width="9.3" height="2.4"/>
					</g>
				</g>
			</g>
			<g class="st11">
				<g>
					<path class="st10" d="M1275.5,588.9"/>
				</g>
				<g>
					<path class="st10" d="M1247,588.9"/>
				</g>
				<g>
					<g>
						<polygon class="st6" points="1237.3,575 1261.8,481.5 1286.3,575 						"/>
						<path class="st5" d="M1288.1,576.4h-52.7l26.3-100.4L1288.1,576.4z M1239.1,573.5h45.4l-22.7-86.5L1239.1,573.5z"/>
					</g>
					<g>
						<line class="st4" x1="1261.5" y1="532.5" x2="1261.5" y2="589.9"/>
						<rect x="1260.1" y="532.5" class="st5" width="2.8" height="57.4"/>
					</g>
					<g>
						<line class="st4" x1="1273.6" y1="551.5" x2="1261.3" y2="563.8"/>
						
							<rect x="1266.1" y="548.9" transform="matrix(-0.7071 -0.7071 0.7071 -0.7071 1769.4819 1848.175)" class="st5" width="2.8" height="17.4"/>
					</g>
					<g>
						<line class="st4" x1="1254" y1="538.2" x2="1261.8" y2="546"/>
						
							<rect x="1252.4" y="540.8" transform="matrix(-0.7072 -0.7071 0.7071 -0.7072 1764.1558 1815.0378)" class="st5" width="11.1" height="2.8"/>
					</g>
				</g>
			</g>
			<g>
				<g>
					<g>
						<polygon class="st6" points="1164.7,578.1 1185.3,499.4 1206,578.1 						"/>
						<path class="st5" d="M1207.5,579.3h-44.4l22.2-84.6L1207.5,579.3z M1166.2,576.9h38.2l-19.1-72.8L1166.2,576.9z"/>
					</g>
					<g>
						<line class="st4" x1="1185.1" y1="542.4" x2="1185.1" y2="590.7"/>
						<rect x="1183.9" y="542.4" class="st5" width="2.4" height="48.3"/>
					</g>
					<g>
						<line class="st4" x1="1195.3" y1="558.4" x2="1185" y2="568.7"/>
						
							<rect x="1189" y="556.2" transform="matrix(-0.7071 -0.7071 0.7071 -0.7071 1633.2655 1803.6743)" class="st5" width="2.4" height="14.7"/>
					</g>
					<g>
						<line class="st4" x1="1178.8" y1="547.2" x2="1185.4" y2="553.7"/>
						
							<rect x="1177.4" y="549.2" transform="matrix(-0.7071 -0.7071 0.7071 -0.7071 1628.6188 1775.489)" class="st5" width="9.3" height="2.4"/>
					</g>
				</g>
			</g>
			<g>
				<path class="st6" d="M1120.8,364.6H1072c-23,11.7-8.4,0.8-8.4-8.4V336c0-4.6,3.8-8.4,8.4-8.4h48.8c4.6,0,8.4,3.8,8.4,8.4v20.2
					C1129.2,360.8,1125.4,364.6,1120.8,364.6z"/>
				<path class="st5" d="M1059.8,372.1c-1,0-1.7-0.3-2.3-0.9c-1.8-1.8-0.5-4.2,0.9-6.9c1.2-2.4,2.8-5.5,2.8-8V336
					c0-6,4.8-10.8,10.8-10.8h48.8c6,0,10.8,4.8,10.8,10.8v20.2c0,6-4.8,10.8-10.8,10.8h-48.2
					C1065.4,370.6,1061.9,372.1,1059.8,372.1z M1072,330c-3.3,0-6,2.7-6,6v20.2c0,3.7-1.9,7.5-3.3,10.2c1.7-0.7,4.2-1.9,8.3-3.9
					l0.5-0.3h49.3c3.3,0,6-2.7,6-6V336c0-3.3-2.7-6-6-6H1072z"/>
			</g>
			<g>
				<circle class="st6" cx="863.5" cy="300" r="39.5"/>
				<path class="st5" d="M863.5,341.9c-23.1,0-41.9-18.8-41.9-41.9s18.8-41.9,41.9-41.9c23.1,0,41.9,18.8,41.9,41.9
					S886.6,341.9,863.5,341.9z M863.5,262.8c-20.5,0-37.1,16.7-37.1,37.1s16.7,37.1,37.1,37.1c20.5,0,37.1-16.7,37.1-37.1
					S884,262.8,863.5,262.8z"/>
			</g>
			<g class="st7">
				<path class="st5" d="M1126.9,338l-36.9,24.6l28.7,0.5c4.9,0.1,8.9-3.8,8.9-8.7C1127.8,338.1,1127.3,338.5,1126.9,338z"/>
			</g>
			<g>
				<path class="st6" d="M1103.1,339.3h-48.8c-23,11.7-8.4,0.8-8.4-8.4v-20.2c0-4.6,3.8-8.4,8.4-8.4h48.8c4.6,0,8.4,3.8,8.4,8.4
					v20.2C1111.5,335.5,1107.7,339.3,1103.1,339.3z"/>
				<path class="st5" d="M1042.1,346.8c-1,0-1.7-0.3-2.3-0.9c-1.8-1.8-0.5-4.2,0.9-6.9c1.2-2.4,2.8-5.5,2.8-8v-20.2
					c0-6,4.8-10.8,10.8-10.8h48.8c6,0,10.8,4.8,10.8,10.8V331c0,6-4.8,10.8-10.8,10.8h-48.2C1047.8,345.3,1044.2,346.8,1042.1,346.8
					z M1054.3,304.7c-3.3,0-6,2.7-6,6v20.2c0,3.7-1.9,7.5-3.3,10.2c1.7-0.7,4.2-1.9,8.3-3.9l0.5-0.3h49.3c3.3,0,6-2.7,6-6v-20.2
					c0-3.3-2.7-6-6-6L1054.3,304.7L1054.3,304.7z"/>
			</g>
			<g class="st7">
				<path class="st5" d="M1083.8,304l25.2,36.4v-28.7c0-4.9-4-8.8-8.8-8.7C1083.8,303.2,1084.2,303.6,1083.8,304z"/>
			</g>
			<g>
				<path class="st8" d="M557.9,585.7"/>
			</g>
			<g>
				<path class="st8" d="M1397.8,585.7"/>
			</g>
			<g class="st11">
				<g>
					<path class="st10" d="M1314.8,589.2"/>
				</g>
				<g>
					<path class="st10" d="M1295.7,589.2"/>
				</g>
				<g>
					<g>
						<polygon class="st6" points="1289.1,579.9 1305.6,517.2 1322,579.9 						"/>
						<path class="st5" d="M1323.3,580.8h-35.4l17.7-67.4L1323.3,580.8z M1290.4,578.9h30.4l-15.2-58L1290.4,578.9z"/>
					</g>
					<g>
						<line class="st4" x1="1305.4" y1="551.4" x2="1305.4" y2="589.9"/>
						<rect x="1304.5" y="551.4" class="st5" width="1.9" height="38.5"/>
					</g>
					<g>
						<line class="st4" x1="1313.6" y1="564.1" x2="1305.3" y2="572.4"/>
						
							<rect x="1308.5" y="562.4" transform="matrix(-0.7071 -0.7071 0.7071 -0.7071 1833.5306 1895.993)" class="st5" width="1.9" height="11.7"/>
					</g>
					<g>
						<line class="st4" x1="1300.4" y1="555.2" x2="1305.6" y2="560.4"/>
						
							<rect x="1299.3" y="557" transform="matrix(-0.7072 -0.7071 0.7071 -0.7072 1829.9603 1873.7295)" class="st5" width="7.4" height="1.9"/>
					</g>
				</g>
			</g>
		</g>
		<g>
			<g>
				<g>
					<path class="st6" d="M846.4,302.2v19.6l12.7,4.8l14.5-4.8c0,0,11.3-3,11.3-9.9s0-21,0-21h-38.5
						C846.4,290.9,846.4,302,846.4,302.2z"/>
				</g>
				<g>
					<path class="st5" d="M859.1,327.6l-13.5-5.2v-32.3h40.2v21.8c0,3.2-2.1,6-6.1,8.3c-2.8,1.6-5.5,2.4-5.8,2.4L859.1,327.6z
						 M847.2,321.3l11.9,4.5l14.3-4.8c0.1,0,10.7-2.9,10.7-9.1v-20.1h-36.8v29.5H847.2z"/>
				</g>
			</g>
			<g>
				<g>
					<path class="st6" d="M849.6,302.7h4.8V299c0,0,5.3-0.9,4.7-4.7c-0.6-3.8,13,16.2,29.2-5.4h-4.2c0,0-0.2-16.4-21.4-14.8
						s-18.2,23.5-18.2,23.5L849.6,302.7z"/>
				</g>
				<g>
					<path class="st5" d="M855.3,303.5h-6l-5.5-5.5v-0.3c-0.1-0.4-1.3-10.4,4.5-17.6c3.3-4.1,8.2-6.4,14.5-6.9
						c7.5-0.6,13.3,1,17.2,4.6c4,3.6,4.9,8.3,5.1,10.2h5.1l-1,1.4c-6.1,8.1-11.9,10.6-16.7,10.6c-5.3,0-9.4-2.9-11.7-4.4
						c-0.2-0.1-0.4-0.3-0.6-0.4c-0.2,2.7-2.8,4.1-4.8,4.6L855.3,303.5L855.3,303.5z M850,301.8h3.6v-3.6l0.7-0.1
						c0.2,0,4.5-0.8,4-3.8c-0.1-0.8,0.2-1.1,0.5-1.3c0.7-0.4,1.4,0,2.8,1c4.2,2.9,13.7,9.5,25-4.4h-3.3v-0.8c0-0.1-0.2-5.7-4.6-9.8
						c-3.6-3.3-8.9-4.7-15.9-4.1c-5.9,0.4-10.4,2.5-13.3,6.2c-4.8,6-4.3,14.4-4.1,16.1L850,301.8z"/>
				</g>
			</g>
			<g>
				<g>
					<path class="st6" d="M847.3,307.8L847.3,307.8c-2.8,0-5.1-2.3-5.1-5.1l0,0c0-2.8,2.3-5.1,5.1-5.1l0,0c2.8,0,5.1,3.1,5.1,5.9"/>
				</g>
				<g>
					<path class="st5" d="M847.3,308.6c-3.3,0-5.9-2.7-5.9-5.9s2.7-5.9,5.9-5.9c3.4,0,5.9,3.6,5.9,6.8h-1.7c0-2.8-2.3-5.1-4.3-5.1
						c-2.3,0-4.2,1.9-4.2,4.2c0,2.3,1.9,4.2,4.2,4.2L847.3,308.6L847.3,308.6z"/>
				</g>
			</g>
			<g class="st7">
				<g>
					<path class="st5" d="M846.6,312.4v9.2l13.4,5.5l12.7-5.5l-12.3,0.7c-1.3,0.1-2.6,0-3.9-0.4c-0.4-0.1-0.7-0.2-1.1-0.3
						c-2.5-0.9-4.6-2.7-6.1-5L846.6,312.4z"/>
				</g>
			</g>
			<g>
				<g>
					<path class="st6" d="M866.5,309.4h8.5C875,309.4,870.4,320.7,866.5,309.4z"/>
				</g>
				<g>
					<path class="st5" d="M870.4,314.8L870.4,314.8c-1.7,0-3.1-1.8-4.4-5.3l-0.2-0.6h9.8l-0.2,0.6
						C875.3,309.8,873.2,314.8,870.4,314.8z M867.1,309.8c1,2.7,2.2,4.2,3.3,4.2l0,0c1.6,0,3.2-2.6,3.9-4.2H867.1z"/>
				</g>
			</g>
			<g class="st7">
				<path class="st5" d="M856,291.7l-2.1,2c-0.7,0.1-3.8-1.4-3.6-2l1.6-6.7c0.1-0.3,4.1-5.4,4.5-5.5c2.5-0.6,12.7-2.8,17.1,0.1
					c4.1,2.7,6.9,8.3,7.8,10.3c0.2,0.4,0.1,0.9-0.3,1.2c-2.4,1.7-11.2,6.9-19.5,1.9c-4.3-2.6-5.3-3.2-5-3.1
					C857.1,290.3,856.9,291.6,856,291.7z"/>
			</g>
		</g>
	</g>
	<path class="st5" d="M1023,391.1H909.7c-3.7,0-6.7-3-6.7-6.7l0,0c0-3.7,3-6.7,6.7-6.7H1023c3.7,0,6.7,3,6.7,6.7l0,0
		C1029.7,388.1,1026.7,391.1,1023,391.1z"/>
	<polygon class="st12" points="1019.7,585.8 912.3,407.8 912.3,391.1 1018.3,391.1 	"/>
	<path class="st6" d="M1019.9,386.3H909.5c-0.8,0-1.5-0.7-1.5-1.5v-1c0-0.8,0.7-1.5,1.5-1.5h110.4c0.8,0,1.5,0.7,1.5,1.5v1
		C1021.4,385.6,1020.8,386.3,1019.9,386.3z"/>
</g>
<g>
	<circle class="st6" cx="787.2" cy="366.4" r="39.5"/>
	<path class="st5" d="M787.2,408.3c-23.1,0-41.9-18.8-41.9-41.9s18.8-41.9,41.9-41.9c23.1,0,41.9,18.8,41.9,41.9
		S810.3,408.3,787.2,408.3z M787.2,329.2c-20.5,0-37.1,16.7-37.1,37.1s16.7,37.1,37.1,37.1c20.5,0,37.1-16.7,37.1-37.1
		S807.7,329.2,787.2,329.2z"/>
</g>
<g>
	<path class="st6" d="M770.6,344.5c-1.7,0.2-3,1.4-3.5,3c-2.9,9.3-11.7,40.4,2.8,40.8c1.6,0,2.4-1.4,2.7-3c0.5-2.3,2.9-3.8,5.2-3.2
		l30.4,6.8c1.9,0.4,3.8-0.4,4.7-2.1c0.4-0.8,0.6-1.8,0.4-2.7c-1.1-5.9-2.5-26.2-3.8-33.2C806.9,337.7,779.8,343.3,770.6,344.5z"/>
	<path class="st5" d="M809.1,389.9c-0.4,0-0.8,0-1.2-0.1l-30.4-6.8c-0.9-0.2-1.8,0-2.6,0.5c-0.8,0.5-1.3,1.2-1.5,2.1
		c-0.7,3.3-2.6,3.8-3.7,3.7c-2.8-0.1-5-1.2-6.5-3.3c-5.9-8.3,0.1-29.8,2.9-38.7c0.6-1.9,2.3-3.3,4.3-3.6l0,0
		c0.9-0.1,1.9-0.3,3.1-0.5c5.6-0.8,14-2.1,21.3-1.7c9.1,0.5,14.3,3.6,15.4,9.2c0.7,3.8,1.4,11.2,2.2,18.4c0.6,6.2,1.2,12,1.7,14.8
		c0.2,1.1,0,2.3-0.5,3.3C812.7,388.9,811,389.9,809.1,389.9z M776.8,381.1c0.4,0,0.8,0,1.2,0.1l30.4,6.8c1.5,0.3,3-0.3,3.7-1.6
		c0.3-0.7,0.5-1.4,0.3-2.2c-0.5-2.8-1.1-8.7-1.7-14.9c-0.7-7.2-1.4-14.6-2.1-18.2c-2.1-11-24.1-7.7-34.7-6.1
		c-1.2,0.2-2.2,0.3-3.1,0.5h0c-1.3,0.2-2.4,1.1-2.8,2.3c-2.1,6.7-8.7,29.3-3.1,37.1c1.2,1.7,2.8,2.5,5.1,2.6c0.3,0,1.3,0,1.8-2.3
		c0.3-1.3,1.1-2.5,2.3-3.2C774.8,381.3,775.8,381.1,776.8,381.1z"/>
</g>
<g>
	<g>
		<path class="st6" d="M796.4,356.1c0,0-8.4,0.8-11.2,1c-3.6,0.2-13.9-1-13.9-1s-5.9,14.2-5.9,21.6c0,7.4,12.1,10.6,12.1,10.6
			l11.5,3.8c2.6,0.9,5.4,0.8,8-0.2l9.6-3.7v-21c0-0.2-3.5-4.4-5.6-8.4C800.2,357.1,798.4,356,796.4,356.1z"/>
		<path class="st5" d="M792.8,393.6c-1.4,0-2.7-0.2-4-0.7l-11.5-3.8c-0.3-0.1-3.3-0.9-6.2-2.6c-4.3-2.4-6.5-5.5-6.5-8.9
			c0-7.5,5.7-21.4,6-22l0.3-0.6l0.7,0.1c0.1,0,10.2,1.2,13.7,1c2.8-0.2,11.1-1,11.2-1l0.1,0c2.3,0,4.4,1.3,5.5,3.3
			c1.5,2.9,3.8,6,4.9,7.5c0.7,1,0.8,1.1,0.8,1.4v21.6l-10.2,3.9C795.9,393.4,794.4,393.6,792.8,393.6z M771.9,357
			c-1.1,2.8-5.6,14.4-5.6,20.7c0,6.6,11.3,9.7,11.4,9.7l0.1,0l11.5,3.8c2.4,0.8,5,0.7,7.3-0.2l9-3.5v-20.1c-0.1-0.1-0.3-0.4-0.4-0.6
			c-1.1-1.5-3.5-4.6-5-7.7c-0.7-1.4-2.2-2.3-3.8-2.3c0,0,0,0,0,0c-0.7,0.1-8.5,0.9-11.2,1C782.1,358.2,774.3,357.3,771.9,357z"/>
	</g>
	<g>
		<path class="st6" d="M801.1,365.6c0-3,4.6-3.2,4.6-3.2c3,0,5.4,2.5,5.4,5.4l0,0c0,3-2.5,5.4-5.4,5.4l0,0"/>
		<path class="st5" d="M805.7,374.1v-1.8c2.5,0,4.5-2,4.5-4.5c0-2.5-2-4.5-4.5-4.5c-0.2,0-1.1,0.1-2.1,0.5c-1.7,0.7-1.7,1.6-1.7,1.9
			h-1.8c0-1.6,1-2.9,2.9-3.6c1.3-0.5,2.5-0.6,2.6-0.6l0.1,0c3.5,0,6.3,2.8,6.3,6.3C812.1,371.3,809.2,374.1,805.7,374.1z"/>
	</g>
	<g class="st13">
		<path class="st5" d="M803.5,382.6c-1.6,2.4-3.8,4.4-6.5,5.4c-0.4,0.2-0.8,0.3-1.2,0.4c-1.3,0.4-2.8,0.4-4.2,0.4l-13.2-0.7l9.5,4.2
			c2.6,1.1,5.5,1.2,8.1,0.1l10.2-4.2v-9.9L803.5,382.6z"/>
	</g>
	<g>
		<path class="st6" d="M776.1,377.7h9.1C781,383.7,776.1,377.7,776.1,377.7z"/>
		<path class="st5" d="M781,380.8c-0.8,0-1.5-0.2-2.1-0.5c-1.3-0.6-3.3-2.2-3.2-2.8l0.1-0.4h10.4l-0.5,0.7
			C784,380.1,782.4,380.8,781,380.8z M777.1,378.1c0.8,0.7,2.2,1.8,3.8,1.8c0,0,0,0,0,0c1.2,0,2.3-0.6,3.3-1.8H777.1z"/>
	</g>
	<g class="st13">
		<path class="st5" d="M771.3,355.9c10.2,9.6,19.5,1,19.5,1"/>
	</g>
</g>
</svg>
