<?xml version="1.0" encoding="UTF-8"?>
<svg width="103px" height="101px" viewBox="0 0 103 101" version="1.1" xmlns="http://www.w3.org/2000/svg" xmlns:xlink="http://www.w3.org/1999/xlink">
    <!-- Generator: Sketch 49.1 (51147) - http://www.bohemiancoding.com/sketch -->
    <title>Artboard Copy 6</title>
    <desc>Created with Sketch.</desc>
    <defs></defs>
    <g id="Artboard-Copy-6" stroke="none" stroke-width="1" fill="none" fill-rule="evenodd">
        <g id="Page-1" transform="translate(6.000000, 12.000000)">
            <polygon id="Fill-1" fill="#2D8ECD" points="55.1367525 41.317587 40.1475589 41.1860465 13.5294118 55.5894606 24.5893144 61.971632 24.3544854 70.3432855 39.3360333 70.4813758 50.3948438 76.8619097 65.3676539 77 92 62.5889446"></polygon>
            <polygon id="Fill-3" fill="#FDC86D" points="9.77069898 0 0 5.6813596 48.8589234 34.0232558 58.627451 28.3397146"></polygon>
            <polygon id="Fill-4" fill="#C97724" points="48.7058824 33.3680353 48.7058824 72.5232558 58.6268996 66.9325764 58.627451 27.755814"></polygon>
            <polygon id="Fill-5" fill="#ED9F32" points="0 44.5335054 14.6114941 52.9301612 24.3532117 69.721857 34.0949294 64.1266 32.4011411 63.1527624 48.7058824 72.5232558 48.7058824 33.3618434 0 5.37209302"></polygon>
            <path d="M36.0784314,42.9887069 C36.0784314,38.6611458 33.0195038,33.3977655 29.2475445,31.23452 C27.0825992,29.9926469 25.1535361,30.0434776 23.9019608,31.1291133 C22.6503855,28.607913 20.7213223,26.3440763 18.5563771,25.1011331 C14.7838792,22.9373525 11.7254902,24.6918125 11.7254902,29.0199088 C11.7254902,29.0841159 11.7287215,29.1493932 11.7297985,29.2136003 C11.7287215,29.2633608 11.7254902,29.309376 11.7254902,29.3596716 C11.7254902,36.1741892 23.9019608,53.7209302 23.9019608,53.7209302 C23.9019608,53.7209302 36.0784314,50.1429874 36.0784314,43.3290048 C36.0784314,43.2787092 36.0752001,43.2284136 36.074123,43.178118 C36.0752001,43.114981 36.0784314,43.0534491 36.0784314,42.9887069" id="Fill-6" fill="#E5E3C3"></path>
        </g>
    </g>
</svg>