<?xml version="1.0" encoding="utf-8"?>
<!-- Generator: Adobe Illustrator 19.1.0, SVG Export Plug-In . SVG Version: 6.00 Build 0)  -->
<svg version="1.0" id="Layer_1" xmlns="http://www.w3.org/2000/svg" xmlns:xlink="http://www.w3.org/1999/xlink" x="0px" y="0px"
	 viewBox="0 0 112 46.7" style="enable-background:new 0 0 112 46.7;" xml:space="preserve">
<style type="text/css">
	.st0{fill:#2BACE2;}
</style>
<g>
	<g>
		<path class="st0" d="M22.4,42.4V20.1"/>
		<path class="st0" d="M45.6,42.4V20.1"/>
		<path class="st0" d="M66.1,42.4V20.1"/>
	</g>
	<g>
		<path class="st0" d="M7.8,27h1.6c1.3,0,2.3,0.2,3.4,1.1c1,0.9,1.4,2,1.4,3.4c0,1.3-0.5,2.4-1.4,3.3c-1,0.9-2.1,1.1-3.4,1.1H7.8V27
			z M9.5,34.9c1.1,0,1.9-0.2,2.7-0.9c0.7-0.7,1.1-1.6,1.1-2.6c0-1-0.4-2-1.1-2.6c-0.8-0.7-1.7-0.9-2.7-0.9H8.8v7H9.5z"/>
		<path class="st0" d="M32,33.4l-1,2.5h-1.1l4-9.2l3.9,9.2h-1.1l-1-2.5H32z M33.9,28.9l-1.5,3.5h2.9L33.9,28.9z"/>
		<path class="st0" d="M56.2,35.9h-1V28h-2.1V27h5.1V28h-2.1V35.9z"/>
		<path class="st0" d="M75.7,33.4l-1,2.5h-1.1l4-9.2l3.9,9.2h-1.1l-1-2.5H75.7z M77.6,28.9l-1.5,3.5H79L77.6,28.9z"/>
	</g>
	<g>
		<path class="st0" d="M85.5,15c5.3,2.9,10.4,6.5,15.1,11.1c-1.7,5.2-3.9,10.1-6.5,14.6C92.9,31,89.8,22.2,85.5,15z"/>
		<path class="st0" d="M90.1,4.3c5.5,5.5,10.3,12.4,14.1,20.3c-2.8,6.1-6.2,11.7-10.1,16.5C95.9,28.3,94.4,15.6,90.1,4.3z"/>
	</g>
</g>
</svg>
