<?xml version="1.0" encoding="UTF-8"?>
<svg width="103px" height="101px" viewBox="0 0 103 101" version="1.1" xmlns="http://www.w3.org/2000/svg" xmlns:xlink="http://www.w3.org/1999/xlink">
    <!-- Generator: Sketch 49.1 (51147) - http://www.bohemiancoding.com/sketch -->
    <title>Artboard Copy</title>
    <desc>Created with Sketch.</desc>
    <defs></defs>
    <g id="Artboard-Copy" stroke="none" stroke-width="1" fill="none" fill-rule="evenodd">
        <g id="Group-8" transform="translate(4.000000, 10.000000)">
            <polygon id="Path-6" fill="#2D8ECD" points="74.6703735 79.6475217 99.2586336 70.9850046 50.1067474 54.8813816 31.0857733 67.2644517"></polygon>
            <g id="Group">
                <g id="1329">
                    <polyline id="Fill-44" fill="#F2D636" points="0.270196727 21.5285965 8.82265122 18.5823509 78.4735429 42.4189357 69.9210884 45.3651813 0.270196727 21.5285965"></polyline>
                    <polyline id="Fill-45" fill="#ECCF27" points="69.6161059 45.145076 78.1685604 42.1988304 78.1240669 51.4269474 69.5716124 54.373193 69.6161059 45.145076"></polyline>
                    <polyline id="Fill-45-Copy" fill="#03A773" points="69.6161059 54.2561871 78.1685604 51.3099415 78.1240669 60.5380585 69.5716124 63.4843041 69.6161059 54.2561871"></polyline>
                    <polyline id="Fill-45-Copy-2" fill="#084CDE" points="69.6161059 63.3672982 78.1685604 60.4210526 78.1240669 69.6491696 69.5716124 72.5954152 69.6161059 63.3672982"></polyline>
                    <polyline id="Fill-45-Copy-3" fill="#342ABE" points="69.6161059 72.4784094 78.1685604 69.5321637 78.1240669 78.7602807 69.5716124 81.7065263 69.6161059 72.4784094"></polyline>
                    <polygon id="Fill-46" fill="#F2D636" points="0.0444934731 21.5789474 69.6953852 45.4155322 69.6508917 54.6436491 0 30.8070643"></polygon>
                    <polyline id="Fill-46-Copy" fill="#00B37A" points="0 39.9181754 0.0444934731 30.6900585 69.6953852 54.5266433 69.6508917 63.7547602 0 39.9181754"></polyline>
                    <polygon id="Fill-46-Copy-2" fill="#2863E3" points="0.0444934731 39.8011696 69.6953852 63.6377544 69.6508917 72.8658713 0 49.0292865"></polygon>
                    <polyline id="Fill-46-Copy-3" fill="#3E34C6" points="0 58.0932879 0.0444934731 48.9122807 69.6953852 72.6271792 69.6508917 81.8081864 0 58.0932879"></polyline>
                    <polyline id="Fill-47" fill="#CD242A" points="0.3146902 12.3043158 8.8671447 9.35807018 78.5180364 33.194655 69.9647729 36.1409006 0.3146902 12.3043158"></polyline>
                    <polyline id="Fill-48" fill="#E38F19" points="69.9647729 36.1409006 78.5180364 33.194655 78.4735429 42.4189357 69.9210884 45.3651813 69.9647729 36.1409006"></polyline>
                    <polygon id="Fill-49" fill="#EE9D2C" points="0.3146902 12.3043158 69.9647729 36.1409006 69.9210884 45.3651813 0.270196727 21.5285965"></polygon>
                    <polyline id="Fill-50" fill="#CE3E3D" points="0.358374701 3.07955556 8.91163817 0.133789474 78.560103 23.9703743 70.0092664 26.9161404 0.358374701 3.07955556"></polyline>
                    <polyline id="Fill-51" fill="#CE3E3D" points="70.0092664 26.9161404 78.560103 23.9703743 78.5180364 33.194655 69.9647729 36.1409006 70.0092664 26.9161404"></polyline>
                    <polyline id="Fill-52" fill="#F05555" points="0.358374701 3.07955556 70.0092664 26.9161404 69.9647729 36.1409006 0.3146902 12.3043158 0.358374701 3.07955556"></polyline>
                </g>
            </g>
        </g>
    </g>
</svg>