<?xml version="1.0" encoding="UTF-8"?>
<svg width="103px" height="101px" viewBox="0 0 103 101" version="1.1" xmlns="http://www.w3.org/2000/svg" xmlns:xlink="http://www.w3.org/1999/xlink">
    <!-- Generator: Sketch 49.1 (51147) - http://www.bohemiancoding.com/sketch -->
    <title>Artboard</title>
    <desc>Created with Sketch.</desc>
    <defs>
        <path d="M12.3157895,99.1358025 L0,99.1358025 L0,0 L78,0 L78,99.1358025 L72.5263158,99.1358025 C72.5263158,105.885949 59.0477304,111.358025 42.4210526,111.358025 C25.7943749,111.358025 12.3157895,105.885949 12.3157895,99.1358025 Z" id="path-1"></path>
    </defs>
    <g id="Artboard" stroke="none" stroke-width="1" fill="none" fill-rule="evenodd">
        <g id="Group" transform="translate(13.000000, -18.000000)">
            <g id="Group-14">
                <mask id="mask-2" fill="white">
                    <use xlink:href="#path-1"></use>
                </mask>
                <g id="Mask"></g>
                <g mask="url(#mask-2)">
                    <g transform="translate(11.000000, 22.000000)">
                        <g id="Page-1-Copy-2" stroke-width="1" fill="none" transform="translate(0.000000, 6.772727)">
                            <path d="M56.4664599,63.713711 C58.4300963,68.162086 59.4610053,80.9842223 53.3246417,87.7236442 C38.8370481,103.636168 59.657369,111.385909 55.4384385,133.687214 C54.286246,139.755071 36.4287059,142.94649 26.6076364,141.32998 C16.7894545,139.71347 4.78817112,134.733191 4.78817112,123.01052 C4.78817112,111.287848 12.677369,100.340745 2.68014973,86.0952477 C-4.17813904,76.324869 5.31662032,67.6361258 4.60913369,54.8199326 C4.38100535,50.6597956 11.288385,47.9497636 11.288385,47.9497636 C11.288385,47.9497636 18.3603636,42.6931334 35.646139,46.3302817 C35.646139,46.3302817 54.4999358,59.2683076 56.4664599,63.713711 Z" id="Fill-11" fill="#8A6659"></path>
                            <path d="M19.5379679,44.3105352 C19.5379679,44.3105352 19.5957219,44.5423143 19.5495187,44.9226697 C19.3906952,46.3192871 18.8304813,49.8970048 18.7525134,51.3857395 C18.6774332,52.8091007 20.3234225,55.2249516 24.0543316,55.0199163 C27.7852406,54.820824 34.0717647,53.0022499 36.0382888,48.3518111 C35.8419251,47.5435559 35.8419251,39.0539051 36.2317647,34.8105654 L19.5379679,44.3105352 Z" id="Fill-22" fill="#7E5749"></path>
                            <path d="M41.1451872,31.5579385 C38.2574866,39.9050994 30.2441176,42.7809658 25.8230481,44.1831569 C21.4048663,45.585348 16.1001604,45.0217222 13.1547059,42.2200894 C10.2063636,39.4129579 7.55545455,26.7904888 9.32272727,15.8506491 C11.0928877,4.91080929 19.9292513,-1.54201904 30.2441176,0.421048459 C40.5560963,2.38686536 49.1008021,8.55650608 41.1451872,31.5579385" id="Fill-24" fill="#8A6659"></path>
                        </g>
                        <ellipse id="Oval-3" fill="#2B2828" cx="41.2727273" cy="36.5727273" rx="5.45454545" ry="5.41818182"></ellipse>
                        <ellipse id="Oval-3-Copy-6" fill="#2B2828" cx="39.9090909" cy="13.5454545" rx="5.45454545" ry="5.41818182"></ellipse>
                        <ellipse id="Oval-3-Copy-8" fill="#2B2828" cx="33.0909091" cy="9.48181818" rx="5.45454545" ry="5.41818182"></ellipse>
                        <ellipse id="Oval-3-Copy-12" fill="#2B2828" cx="16.7272727" cy="9.48181818" rx="5.45454545" ry="5.41818182"></ellipse>
                        <ellipse id="Oval-3-Copy-17" fill="#2B2828" cx="12.6363636" cy="12.1909091" rx="5.45454545" ry="5.41818182"></ellipse>
                        <ellipse id="Oval-3-Copy-3" fill="#2B2828" cx="38.5454545" cy="40.6363636" rx="5.45454545" ry="5.41818182"></ellipse>
                        <ellipse id="Oval-3-Copy" fill="#2B2828" cx="38.5454545" cy="31.1545455" rx="5.45454545" ry="5.41818182"></ellipse>
                        <ellipse id="Oval-3-Copy-2" fill="#2B2828" cx="44" cy="28.4454545" rx="5.45454545" ry="5.41818182"></ellipse>
                        <ellipse id="Oval-3-Copy-7" fill="#2B2828" cx="45.3636364" cy="12.1909091" rx="5.45454545" ry="5.41818182"></ellipse>
                        <ellipse id="Oval-3-Copy-9" fill="#2B2828" cx="39.9090909" cy="8.12727273" rx="5.45454545" ry="5.41818182"></ellipse>
                        <ellipse id="Oval-3-Copy-11" fill="#2B2828" cx="31.7272727" cy="5.41818182" rx="5.45454545" ry="5.41818182"></ellipse>
                        <ellipse id="Oval-3-Copy-13" fill="#2B2828" cx="22.1818182" cy="5.41818182" rx="5.45454545" ry="5.41818182"></ellipse>
                        <ellipse id="Oval-3-Copy-18" fill="#2B2828" cx="26.2727273" cy="10.8363636" rx="5.45454545" ry="5.41818182"></ellipse>
                        <ellipse id="Oval-3-Copy-19" fill="#2B2828" cx="34.4545455" cy="14.9" rx="5.45454545" ry="5.41818182"></ellipse>
                        <ellipse id="Oval-3-Copy-14" fill="#2B2828" cx="48.0909091" cy="29.8" rx="5.45454545" ry="5.41818182"></ellipse>
                        <ellipse id="Oval-3-Copy-15" fill="#2B2828" cx="45.3636364" cy="36.5727273" rx="5.45454545" ry="5.41818182"></ellipse>
                        <ellipse id="Oval-3-Copy-16" fill="#2B2828" cx="38.5454545" cy="14.9" rx="5.45454545" ry="5.41818182"></ellipse>
                        <ellipse id="Oval-3-Copy-4" fill="#2B2828" cx="48.0909091" cy="20.3181818" rx="6.81818182" ry="6.77272727"></ellipse>
                        <ellipse id="Oval-3-Copy-5" fill="#2B2828" cx="41.2727273" cy="21.6727273" rx="6.81818182" ry="6.77272727"></ellipse>
                    </g>
                </g>
            </g>
        </g>
    </g>
</svg>