<?xml version="1.0" encoding="UTF-8"?>
<svg width="103px" height="101px" viewBox="0 0 103 101" version="1.1" xmlns="http://www.w3.org/2000/svg" xmlns:xlink="http://www.w3.org/1999/xlink">
    <!-- Generator: Sketch 49.1 (51147) - http://www.bohemiancoding.com/sketch -->
    <title>Artboard Copy 5</title>
    <desc>Created with Sketch.</desc>
    <defs>
        <polygon id="path-1" points="90.3599153 46.8188368 90.3599153 85.840708 0 85.840708 0 0.197974966 90.3599153 0.197974966 90.3599153 46.8188368 27.6079077 46.8188368 27.6079077 85.8406847 90.3601298 85.8406847 90.3601298 46.8188368"></polygon>
        <polygon id="path-3" points="38.8084007 0.197230609 0.596924631 0.197230609 0.596924631 65.448127 38.8084007 65.448127"></polygon>
    </defs>
    <g id="Artboard-Copy-5" stroke="none" stroke-width="1" fill="none" fill-rule="evenodd">
        <g id="Group-15" transform="translate(11.000000, 1.000000)">
            <g id="Group-3">
                <mask id="mask-2" fill="white">
                    <use xlink:href="#path-1"></use>
                </mask>
                <g id="Clip-2"></g>
                <path d="M42.158372,67.778663 C35.961889,64.1903667 36.1230669,58.4459994 42.5192873,54.9729307 C48.9155076,51.4998621 59.1607195,51.5942095 65.3587449,55.1817324 C71.555228,58.7700287 71.39405,64.5143961 64.9970585,67.9882381 C58.6016093,71.4605334 48.3556263,71.3669593 42.158372,67.778663 M68.105711,84.2678123 L68.3378381,76.0433445 C73.4631432,75.5878474 78.3964229,74.2762633 82.4058212,72.0985386 C88.890728,68.5782963 91.4240754,63.6296954 89.9557364,58.9935239 C89.0750415,56.214141 86.7568551,53.5468923 82.9903805,51.3660743 C77.9661008,48.4575436 71.3146178,46.964998 64.6222619,46.9031308 C58.8144568,46.8505437 55.0811432,46.8257969 54.1942788,46.8203835 L54.1341263,46.8203835 C54.0423551,46.8196101 53.9868297,46.8188368 53.9868297,46.8188368 C53.9868297,46.8188368 53.9852873,46.8203835 53.9837449,46.8211568 C47.3530839,46.7871299 40.6985161,48.1551678 35.5616432,50.9446042 C25.1891856,56.5768373 24.9277534,65.8592338 34.9770839,71.6778418 C38.7451008,73.8586598 43.4277449,75.2437112 48.3548551,75.826036 L48.1211856,84.0953576 C48.0972788,84.9893383 50.3144398,85.7340644 53.0752873,85.7588113 C53.1508636,85.7595846 53.2264398,85.7580379 53.3012449,85.7572646 L53.2981602,85.7611313 C53.2981602,85.7611313 60.3020754,85.8152651 63.0629229,85.840012 C65.8229992,85.8655322 68.0810331,85.161793 68.105711,84.2678123" id="Fill-1" fill="#3F5052" mask="url(#mask-2)"></path>
            </g>
            <path d="M59.1941748,76.1061947 L48.311725,54.9822703 C47.3067832,53.1799188 45.0821367,52.5622547 43.344039,53.6026926 C41.6037197,54.6438978 41.0075678,56.9480534 42.0125096,58.7504049 L52.1189512,84.0707965 C57.4271845,93.8053097 60.1050814,89.978491 61.8446602,88.9380531 C63.584239,87.8983825 65.4993469,88.0855373 64.4951456,86.2831858 L59.1941748,76.1061947 Z" id="Fill-4" fill="#5E9A1B"></path>
            <path d="M23.8543689,28.0649784 C32.8879899,38.2688285 37.1708712,51.9566553 42.6237861,64.6017699 C43.8155444,63.866057 45.6644767,62.7791555 48.0526486,61.54108 C52.7382139,59.1129948 55.6601942,53.5428183 55.6601942,45.5003673 C55.6601942,35.7756221 51.3881752,24.7376023 44.89092,15.9292035 L23.8543689,28.0649784 Z" id="Fill-6" fill="#78AF3B"></path>
            <g id="Group-10" transform="translate(6.184466, 0.000000)">
                <mask id="mask-4" fill="white">
                    <use xlink:href="#path-3"></use>
                </mask>
                <g id="Clip-9"></g>
                <path d="M38.8084007,16.1027236 C34.9054725,10.8553108 30.2025219,6.40452473 25.1395999,3.50692972 C18.3848908,-0.35678709 12.2692667,-0.722742322 7.8430974,1.80966788 C3.41692808,4.34207808 0.824046524,5.86137012 0.824046524,5.86137012 C0.824046524,5.86137012 -0.405142602,22.0643269 2.8555906,36.6717189 C3.6501708,40.2318855 4.71064769,43.6972889 6.12176614,46.8106049 C9.72536614,54.7622343 35.0018795,65.448127 35.0018795,65.448127 C35.0018795,65.448127 35.5414477,65.0814014 36.5366166,64.47276 C31.0725172,51.9062426 26.7808512,38.303494 17.7287013,28.1630672 L38.8084007,16.1027236 Z" id="Fill-8" fill="#BCED86" mask="url(#mask-4)"></path>
            </g>
            <path d="M54.2655566,80.078138 L42.4504987,59.4437581 C41.3977025,57.6063057 39.0671205,56.9766125 37.2454805,58.0373131 C35.4230646,59.0987958 34.7985245,61.4478251 35.8513207,63.2852775 L52.5679612,92.0353982 C53.6207574,93.8728507 55.9505636,94.5017616 57.7722036,93.4410611 C59.5953953,92.3811428 60.2191596,90.0313313 59.1671392,88.1938789" id="Fill-11" fill="#9ED462"></path>
            <path d="M27.388736,51.0432784 C35.6703805,55.8452566 42.407767,51.938944 42.407767,42.3357637 C42.407767,32.7333595 35.6703805,21.0144216 27.388736,16.2132195 C19.1070914,11.4112413 12.368932,15.3183301 12.368932,24.9207342 C12.368932,34.5231384 19.1070914,46.2420763 27.388736,51.0432784" id="Fill-13" fill="#3F9CCF"></path>
            <g id="Group-23" transform="translate(0.000000, 3.539823)" fill="#9ED462">
                <path d="M24.2666526,49.329946 C16.0021165,44.5232117 9.27787702,32.7907706 9.27787702,23.177302 C9.27787702,13.5638334 16.0021165,9.65224261 24.2666526,14.4597539 C32.5311888,19.2664882 39.254657,30.9989294 39.254657,40.612398 C39.254657,50.2266436 32.5311888,54.1374574 24.2666526,49.329946 M24.2666526,3.66597021 C10.864452,-4.12846104 -0.000154261057,2.19038204 -0.000154261057,17.7800216 C-0.000154261057,33.3704382 10.864452,52.3285215 24.2666526,60.1237298 C37.668082,67.918161 48.5326882,61.5993179 48.5326882,46.0089014 C48.5326882,30.4192618 37.668082,11.4619555 24.2666526,3.66597021" id="Fill-21"></path>
            </g>
            <polygon id="Path-2" fill="#9ED462" points="47.7087379 94.2477876 61.8446602 99.5575221 63.1699029 85.3982301"></polygon>
            <polygon id="Path-3" fill="#63A41B" points="63.1699029 85.3982301 66.2621359 83.1858407 64.4951456 97.3451327 61.8446602 99.5575221"></polygon>
            <polygon id="Path-4" fill="#9ED462" points="40.1990291 80.0884956 54.3349515 72.5663717 57.868932 78.7610619 43.7330097 85.840708"></polygon>
            <polygon id="Path-5" fill="#63A41B" points="54.3349515 72.5663717 59.1941748 69.9115044 62.2864078 75.2212389 57.868932 78.7610619"></polygon>
        </g>
    </g>
</svg>