<?xml version="1.0" encoding="utf-8"?>
<!-- Generator: Adobe Illustrator 19.0.0, SVG Export Plug-In . SVG Version: 6.00 Build 0)  -->
<svg version="1.1" id="Layer_1" xmlns="http://www.w3.org/2000/svg" xmlns:xlink="http://www.w3.org/1999/xlink" x="0px" y="0px"
	 viewBox="-304 211 182.7 191" style="enable-background:new -304 211 182.7 191;" xml:space="preserve">
<style type="text/css">
	.st0{fill:#FFFFFF;stroke:#2BACE2;stroke-width:5.6693;stroke-miterlimit:10;}
	.st1{opacity:0.1;fill:#2BACE2;enable-background:new    ;}
	.st2{fill:#FFFFFF;stroke:#2BACE2;stroke-width:2.8346;stroke-miterlimit:10;}
</style>
<path class="st0" d="M-261.3,243.4c-5.2,0.7-9.5,4.3-11,9.3c-9.2,29-36.7,126.3,8.7,127.6c5,0.1,7.4-4.4,8.6-9.5
	c1.6-7.3,8.9-11.7,16.2-10.1L-144,382c5.8,1.3,11.9-1.2,14.7-6.5c1.3-2.5,1.9-5.5,1.3-8.6c-3.4-18.6-7.8-81.9-11.9-103.7
	C-147.9,222.2-232.5,239.5-261.3,243.4z"/>
<g>
	<path class="st0" d="M-180.5,279.5c0,0-26.1,2.7-35.1,3.2c-11.3,0.6-43.4-3.2-43.4-3.2s-18.4,44.5-18.4,67.6
		c0,23.1,37.8,33.1,37.8,33.1l36.1,12c8.1,2.7,16.9,2.5,24.9-0.5l30.1-11.5v-65.5c0-0.5-10.9-13.7-17.4-26.4
		C-168.7,282.8-174.4,279.4-180.5,279.5z"/>
	<path class="st0" d="M-166,309.4c0-9.3,14.5-10.2,14.5-10.2c9.4,0,17,7.7,17,17l0,0c0,9.4-7.7,17-17,17l0,0"/>
	<path class="st1" d="M-158.3,362.5c-4.9,7.6-11.9,13.7-20.4,16.8c-1.2,0.5-2.5,0.9-3.7,1.2c-4.2,1.1-8.6,1.4-13,1.2l-41.1-2.2
		l29.8,13c8,3.5,17.2,3.6,25.3,0.2l32-13.2v-30.8L-158.3,362.5z"/>
	<path class="st2" d="M-244.1,347h28.5C-228.9,366-244.2,347-244.1,347z"/>
	<path class="st1" d="M-259,279c32,30,61,3,61,3"/>
</g>
</svg>
