<?xml version="1.0" encoding="UTF-8"?>
<svg width="108px" height="108px" viewBox="0 0 108 108" version="1.1" xmlns="http://www.w3.org/2000/svg" xmlns:xlink="http://www.w3.org/1999/xlink">
    <!-- Generator: Sketch 48.2 (47327) - http://www.bohemiancoding.com/sketch -->
    <title>Artboard</title>
    <desc>Created with Sketch.</desc>
    <defs>
        <polygon id="path-1" points="29.6585789 0.00774774775 29.6585789 37.5439209 0.417011891 37.5439209 0.417011891 0.00774774775 29.6585789 0.00774774775"></polygon>
        <polygon id="path-3" points="11.8348319 12.6126126 0.725193633 12.6126126 0.725193633 0.735945946 11.8348319 0.735945946 11.8348319 12.6126126"></polygon>
    </defs>
    <g id="Page-1" stroke="none" stroke-width="1" fill="none" fill-rule="evenodd">
        <g id="Artboard">
            <g id="Group-8" transform="translate(3.000000, 4.000000)">
                <path d="M64.6008772,90.0900901 L102.548246,72.972973 L102.548246,63.5135135 C97.127193,58.4084084 93.9649123,55.7057057 93.0614035,55.4054054 C91.7061404,54.954955 80.8640351,48.1981982 79.9605263,48.1981982 C79.0570175,48.1981982 70.0219298,49.5495495 64.6008772,49.5495495 C59.1798246,49.5495495 3.1622807,74.3243243 4.96929825,76.1261261 C6.77631579,77.9279279 18.9736842,80.1801802 19.877193,80.6306306 C20.4795322,80.9309309 28.3099415,86.7867868 43.3684211,98.1981982 L64.6008772,90.0900901 Z" id="Path-6" fill="#2D8ECD"></path>
                <g id="Page-1">
                    <path d="M3.78570175,80.8069369 L0.462596491,78.6024324 C0.0533070175,78.0042342 -0.0442719298,76.6727027 0.0171666667,75.6853153 C0.187026316,72.9348649 2.62198246,69.1555856 5.89900877,69.1555856 C7.0139386,69.1555856 6.68144737,69.2781081 6.88744737,69.3114414 C6.98683333,69.3015315 8.37823684,69.9213514 8.46949123,69.9654955 C11.2260965,71.3303604 11.2486842,74.4627928 9.82927193,77.2222523 C8.92034211,78.9898198 6.77902632,80.924955 4.93948246,81.015045 C4.62867544,81.0312613 4.35129825,80.997027 4.10464035,80.9267568 L4.10373684,80.9276577 L4.09018421,80.9231532 C3.98357018,80.8916216 3.88057018,80.8537838 3.78570175,80.8069369" id="Fill-1" fill="#1D1D1B"></path>
                    <path d="M8.27496579,77.4598198 C7.14196579,78.9165766 5.45872895,79.5066667 4.51546579,78.7769369 C3.57220263,78.0481081 3.72670263,76.276036 4.85970263,74.8183784 C5.99270263,73.3616216 7.67593947,72.7724324 8.61920263,73.5012613 C9.56156228,74.230991 9.40796579,76.0030631 8.27496579,77.4598198" id="Fill-3" fill="#5E5D5D"></path>
                    <path d="M66.5557088,31.9005405 C66.5557088,31.9005405 66.4256035,16.078018 66.5557088,13.8726126 C66.685814,11.6681081 75.6612702,9.76900901 75.6612702,9.76900901 C75.6612702,9.76900901 77.390586,10.5843243 77.2216298,12.3167568 C77.081586,13.7482883 76.4409982,13.8726126 76.4409982,13.8726126 L70.1977526,15.9005405 L70.3468316,30.6203604" id="Fill-5" fill="#1D1D1B"></path>
                    <path d="M47.4364693,22.1322523 C47.4364693,22.1322523 47.306364,6.30972973 47.4364693,4.10432432 C47.5665746,1.89981982 56.5420307,0.000720720721 56.5420307,0.000720720721 C56.5420307,0.000720720721 58.270443,0.202522523 58.1114254,2.20252252 C57.9731886,3.93765766 57.3217588,4.10432432 57.3217588,4.10432432 L51.0785132,6.13225225 L50.8318553,21.0475676" id="Fill-7" fill="#1D1D1B"></path>
                    <path d="M33.3831132,50.7591892 C30.0121219,57.0907207 22.0693763,64.0240541 15.2433675,64.3492793 C8.61070965,64.6663964 5.98511316,59.5501802 6.41337632,52.6123423 C7.01330614,42.9159459 16.5371921,26.2033333 28.0858412,26.2033333 C39.6335868,26.2033333 38.6478588,40.8709009 33.3831132,50.7591892" id="Fill-9" fill="#4B4B4A"></path>
                    <path d="M34.9655184,52.2961261 C31.7625798,58.524955 24.2164746,65.3438739 17.7292816,65.6636937 C11.4282114,65.9754054 8.93272018,60.9438739 9.34110614,54.1186486 C9.91031667,44.5817117 18.9598605,28.1420721 29.9320711,28.1420721 C40.9042816,28.1420721 39.967343,42.57 34.9655184,52.2961261" id="Fill-11" fill="#1D1D1B"></path>
                    <polygon id="Fill-13" fill="#8C4991" points="68.6808518 23.7836036 71.8657202 22.1322523 71.8657202 56.9854054 68.6808518 58.334955"></polygon>
                    <path d="M34.4758167,12.5153153 L35.5464746,11.4099099 C35.5464746,11.4099099 38.1359307,8.75585586 42.8703167,7.81981982 C45.7064307,7.25855856 49.7640886,7.45315315 55.0342553,9.87657658 C64.0810886,14.036036 71.8657202,22.1324324 71.8657202,22.1324324 L68.6808518,23.7837838 L34.4758167,12.5153153 Z" id="Fill-15" fill="#C18FBF"></path>
                    <path d="M34.4758167,43.694955 L34.4758167,12.5156757 C34.4758167,12.5156757 37.8721061,7.28684685 47.9986325,10.0994595 C55.0532289,12.0598198 61.8774307,17.4958559 65.2791412,20.64 L68.6808518,23.7832432 L68.6808518,59.7003604 L34.4758167,43.694955 Z" id="Fill-17" fill="#9D62A0"></path>
                    <polygon id="Fill-19" fill="#9D62A0" points="4.66580965 55.9213514 4.66580965 65.1303604 38.2980202 84.9465766 38.2980202 75.515045"></polygon>
                    <polygon id="Fill-21" fill="#C18FBF" points="4.66580965 55.9213514 34.2846342 38.4546847 69.8277658 58.4618919 38.2980202 75.515045"></polygon>
                    <polygon id="Fill-23" fill="#CCCBCB" points="38.3599105 82.7218018 38.6237351 95.2902703 42.6172439 90.1605405 42.6172439 79.0902703"></polygon>
                    <polygon id="Fill-25" fill="#8C4991" points="38.2976588 75.515045 38.2976588 84.9465766 72.3635535 66.2564865 71.8657202 56.9853153"></polygon>
                    <path d="M4.66580965,65.1304505 L4.66580965,74.9601802 C4.66580965,76.598018 6.31019561,77.7304505 7.84706404,77.1502703 C8.22111667,77.0088288 8.46867807,76.6511712 8.46867807,76.2511712 L8.46867807,67.5583784 L4.66580965,65.1304505 Z" id="Fill-27" fill="#CCCBCB"></path>
                    <path d="M13.1754167,37.0433333 L13.1754167,40.41 C13.1754167,40.41 15.6212149,42.7595495 18.4238991,41.4892793 C21.2265833,40.219009 35.5462939,32.0892793 35.5462939,32.0892793 L35.4622675,28.9136036 L13.1754167,37.0433333 Z" id="Fill-29" fill="#9D62A0"></path>
                    <path d="M48.8182053,56.03 L48.8182053,59.3966667 C48.8182053,59.3966667 51.2640035,61.7462162 54.0666877,60.4759459 C56.8693719,59.2056757 71.1890825,51.0759459 71.1890825,51.0759459 L71.1050561,47.9002703 L48.8182053,56.03 Z" id="Fill-31" fill="#9D62A0"></path>
                    <path d="M76.9050404,75.7437838 C73.5340491,82.0753153 65.592207,89.0086486 58.7652947,89.3338739 C52.1326368,89.650991 49.5070404,84.5347748 49.936207,77.5969369 C50.5352333,67.9005405 60.0591193,51.1879279 71.6077684,51.1879279 C83.155514,51.1879279 82.169786,65.8554955 76.9050404,75.7437838" id="Fill-33" fill="#1D1D1B"></path>
                    <g id="Group-37" transform="translate(52.403509, 53.118919)">
                        <mask id="mask-2" fill="white">
                            <use xlink:href="#path-1"></use>
                        </mask>
                        <g id="Clip-36"></g>
                        <path d="M26.0840272,24.1618018 C22.8810886,30.3906306 15.3349833,37.2095495 8.84869386,37.5302703 C2.54672018,37.8410811 0.0521324561,32.8095495 0.459614912,25.9843243 C1.02972895,16.4473874 10.0783693,0.00774774775 21.0505798,0.00774774775 C32.0236939,0.00774774775 31.0867553,14.4356757 26.0840272,24.1618018" id="Fill-35" fill="#5E5D5D" mask="url(#mask-2)"></path>
                    </g>
                    <path d="M76.5790544,76.1181081 C73.9037649,81.3262162 67.6008877,87.0289189 62.1834491,87.2964865 C56.9205105,87.5568468 54.8370193,83.3496396 55.1776421,77.6424324 C55.6528877,69.6676577 63.2107386,55.9217117 72.3750281,55.9217117 C81.5393175,55.9217117 80.7568789,67.9847748 76.5790544,76.1181081" id="Fill-38" fill="#CCCBCB"></path>
                    <path d="M13.9647219,35.3444144 L29.3478623,26.5318018 C29.3478623,26.5318018 31.2587833,25.293964 33.694643,26.0552252 C36.1314061,26.8182883 35.4619061,28.9137838 35.4619061,28.9137838 L19.5068447,38.0597297 C19.5068447,38.0597297 16.0671868,39.5363063 14.6812044,38.6309009 C13.2961254,37.7263964 12.4838711,36.5354054 13.9647219,35.3444144" id="Fill-40" fill="#B573AE"></path>
                    <path d="M49.6078719,54.3310811 L64.9901088,45.5184685 C64.9901088,45.5184685 66.9010298,44.2806306 69.337793,45.0418919 C71.7745561,45.804955 71.1050561,47.9004505 71.1050561,47.9004505 L55.1490912,57.0463964 C55.1490912,57.0463964 51.7094333,58.522973 50.3243544,57.6175676 C48.9392754,56.7130631 48.1270211,55.5220721 49.6078719,54.3310811" id="Fill-42" fill="#B573AE"></path>
                    <g id="Group-46" transform="translate(36.140351, 87.353153)">
                        <mask id="mask-4" fill="white">
                            <use xlink:href="#path-3"></use>
                        </mask>
                        <g id="Clip-45"></g>
                        <path d="M11.1046649,1.95036036 L7.67946316,0.735945946 L6.88347193,0.735945946 C3.60734912,0.735945946 0.904954386,5.47738739 0.735094737,8.22873874 C0.64474386,9.69 1.1841386,11.0287387 1.88797193,11.5620721 C2.55747193,12.0701802 4.25245439,12.5044144 5.0882,12.5999099 C5.29510351,12.6233333 5.63120877,12.6107207 5.92394561,12.5954054 C7.76439298,12.5044144 9.81084035,10.5188288 10.8137351,8.80261261 C12.9270421,5.1890991 11.1046649,1.95036036 11.1046649,1.95036036" id="Fill-44" fill="#1D1D1B" mask="url(#mask-4)"></path>
                    </g>
                    <path d="M45.0929482,95.7554054 C43.9599482,97.2121622 42.2767114,97.8022523 41.3334482,97.0725225 C40.3910886,96.3436937 40.5446851,94.5716216 41.6776851,93.1148649 C42.8106851,91.6581081 44.4939219,91.068018 45.4371851,91.7968468 C46.3804482,92.5265766 46.2259482,94.2986486 45.0929482,95.7554054" id="Fill-47" fill="#5E5D5D"></path>
                </g>
            </g>
        </g>
    </g>
</svg>