<?xml version="1.0" encoding="UTF-8"?>
<svg width="103px" height="101px" viewBox="0 0 103 101" version="1.1" xmlns="http://www.w3.org/2000/svg" xmlns:xlink="http://www.w3.org/1999/xlink">
    <!-- Generator: Sketch 49.1 (51147) - http://www.bohemiancoding.com/sketch -->
    <title>Artboard Copy 5</title>
    <desc>Created with Sketch.</desc>
    <defs></defs>
    <g id="Artboard-Copy-5" stroke="none" stroke-width="1" fill="none" fill-rule="evenodd">
        <g id="Group-17" transform="translate(6.000000, 3.000000)">
            <polygon id="Fill-3" fill="#2D8ECD" points="91.209847 64.5835701 68.6053066 52.0992395 57.2208652 52 11 75.9381581 44.6154765 94.5022982 55.9999179 94.6015377 90.5806981 76.6915845"></polygon>
            <polygon id="Fill-19" fill="#E5E3C3" points="44.8198054 45.2042454 29.8297929 20.473759 0 4 0 69.9506101 44.8198054 94.7017383"></polygon>
            <polygon id="Fill-21" fill="#FAF9E1" points="29.8297929 20.598947 37.6094931 16.6452449 7.46927588 0 0 4.12518803"></polygon>
            <polygon id="Fill-23" fill="#C5BC93" points="45 95.4670734 45 45.9695805 52.4701059 42 52.4701059 91.3426793"></polygon>
            <polygon id="Fill-25" fill="#C5BC93" points="30 20.9537022 37.7797003 17 52.4601184 41.7146081 44.9900125 45.6841885"></polygon>
            <polygon id="Fill-27" fill="#FAF9E1" points="29 21 29 37.50234 43.9900125 45.7304864"></polygon>
            <polygon id="Fill-29" fill="#6C7F80" points="7 17 7.02988042 33.5182183 21.9344017 41.7495404 21.9410418 25.25117"></polygon>
            <polygon id="Fill-31" fill="#C5BC93" points="36.8737835 58.5039278 7 42 7 50.2567274 36.8754435 66.7543039"></polygon>
            <polygon id="Fill-33" fill="#C5BC93" points="7 58 7 66.2567274 36.8754435 82.7550978 36.8737835 74.5039278"></polygon>
        </g>
    </g>
</svg>