<?xml version="1.0" encoding="utf-8"?>
<!-- Generator: Adobe Illustrator 19.1.0, SVG Export Plug-In . SVG Version: 6.00 Build 0)  -->
<svg version="1.0" id="Layer_1" xmlns="http://www.w3.org/2000/svg" xmlns:xlink="http://www.w3.org/1999/xlink" x="0px" y="0px"
	 viewBox="0 0 182.7 191" style="enable-background:new 0 0 182.7 191;" xml:space="preserve">
<style type="text/css">
	.st0{fill:#2BACE2;}
	.st1{fill:#FFFFFF;stroke:#2BACE2;stroke-width:5.6693;stroke-miterlimit:10;}
	.st2{opacity:0.1;fill:#2BACE2;}
	.st3{fill:#FFFFFF;stroke:#2BACE2;stroke-width:2.8346;stroke-miterlimit:10;}
</style>
<g>
	<path class="st1" d="M29.2,103.7v65.5l42.4,16.2l48.6-16.2c0,0,37.8-10,37.8-33.1s0-70.1,0-70.1H29.2C29.2,66,29.2,103,29.2,103.7z
		"/>
	<path class="st1" d="M40,105.3h16.2V93c0,0,17.7-3.1,15.8-15.8c-1.9-12.7,43.4,54,97.5-18.1h-13.9c0,0-0.8-54.7-71.7-49.3
		S23,88.3,23,88.3L40,105.3z"/>
	<path class="st1" d="M32.1,122.2L32.1,122.2c-9.3,0-17-7.6-17-17v0c0-9.3,7.6-17,17-17h0c9.3,0,17,10.5,17,19.8"/>
	<path class="st2" d="M30,137.7v30.8L74.7,187l42.4-18.5L76,170.7c-4.4,0.2-8.8-0.1-13-1.2c-1.2-0.3-2.5-0.7-3.7-1.2
		c-8.5-3.1-15.5-9.2-20.4-16.8L30,137.7z"/>
	<path class="st3" d="M96.2,127.6h28.5C124.8,127.6,109.5,165.5,96.2,127.6z"/>
	<path class="st2" d="M86.5,71.5c0,0,29,27,61-3"/>
</g>
</svg>
