<?xml version="1.0" encoding="UTF-8"?>
<svg width="99px" height="109px" viewBox="0 0 99 109" version="1.1" xmlns="http://www.w3.org/2000/svg" xmlns:xlink="http://www.w3.org/1999/xlink">
    <!-- Generator: Sketch 46.2 (44496) - http://www.bohemiancoding.com/sketch -->
    <title>logo</title>
    <desc>Created with Sketch.</desc>
    <defs></defs>
    <g id="Page-1" stroke="none" stroke-width="1" fill="none" fill-rule="evenodd">
        <g id="Desktop-HD-Copy-2" transform="translate(-56.000000, -29.000000)" fill-rule="nonzero">
            <g id="logo" transform="translate(56.000000, 29.000000)">
                <path d="M31.2971469,102.17412 C31.2971469,104.00769 29.7797095,105.525128 27.9461393,105.525128 C26.112569,105.525128 24.5951316,104.00769 24.5951316,102.17412 C24.5951316,100.34055 26.112569,98.8231124 27.9461393,98.8231124 C29.7797095,98.8231124 31.2971469,100.277323 31.2971469,102.17412" id="Shape" fill="#E4087E"></path>
                <path d="M45.5231228,85.102949 C31.1074672,85.102949 19.4105537,73.4060355 19.4105537,58.99038 C19.4737803,44.5747244 31.1706938,32.8778109 45.5863494,32.8778109 C60.0020049,32.8778109 71.6356918,44.5747244 71.6356918,58.99038 C71.6356918,73.4060355 59.9387784,85.102949 45.5231228,85.102949 Z" id="Shape" fill="#38A7DF"></path>
                <path d="M24.7848113,22.5086552 C18.1460226,22.5086552 12.8349916,27.8829127 12.8349916,34.4584749 C12.8349916,40.4017715 17.1343976,45.2702166 22.7615614,46.2818415 C25.7964363,40.7811308 30.7913344,36.5449514 36.7978576,34.3952483 C36.734631,27.8196862 31.4236,22.5086552 24.7848113,22.5086552" id="Shape" fill="#E4087E"></path>
                <path d="M36.7978576,34.3952483 C30.7913344,36.5449514 25.7964363,40.8443574 22.7615614,46.2818415 C23.393827,46.4082946 24.0893191,46.4715212 24.7848113,46.4715212 C31.4236,46.4715212 36.734631,41.0972636 36.734631,34.5217015 C36.7978576,34.4584749 36.7978576,34.4584749 36.7978576,34.3952483" id="Shape" fill="#6F2A81"></path>
                <path d="M59.6858721,19.0311944 C59.6858721,24.1525457 55.5129192,28.3254986 50.3915679,28.3254986 C45.2702166,28.3254986 41.0972636,24.1525457 41.0972636,19.0311944 C41.0972636,13.9098431 45.2702166,9.73689015 50.3915679,9.73689015 C55.5129192,9.73689015 59.6858721,13.9098431 59.6858721,19.0311944" id="Shape" fill="#05AA9E"></path>
                <path d="M7.20782778,36.3552717 C7.20782778,38.2520685 5.62716379,39.8327324 3.73036701,39.8327324 C1.83357022,39.8327324 0.252906238,38.2520685 0.252906238,36.3552717 C0.252906238,34.4584749 1.83357022,32.8778109 3.73036701,32.8778109 C5.62716379,32.8778109 7.20782778,34.4584749 7.20782778,36.3552717" id="Shape" fill="#E4087E"></path>
                <path d="M68.2214576,0.442585916 C64.2381844,0.442585916 61.0136299,3.66714045 61.0136299,7.65041369 C61.0136299,11.6336869 64.2381844,14.8582415 68.2214576,14.8582415 C72.2047309,14.8582415 75.4292854,11.6336869 75.4292854,7.65041369 C75.3660589,3.66714045 72.1415043,0.442585916 68.2214576,0.442585916" id="Shape" fill="#F7B132"></path>
                <path d="M98.886339,52.7309506 C98.886339,55.0071067 97.0527687,56.8406769 94.7766126,56.8406769 C92.5004565,56.8406769 90.6668862,55.0071067 90.6668862,52.7309506 C90.6668862,50.4547944 92.5004565,48.6212242 94.7766126,48.6212242 C97.0527687,48.5579977 98.886339,50.3915679 98.886339,52.7309506" id="Shape" fill="#05AA9E"></path>
                <path d="M57.2832629,98.8231124 C57.2832629,104.00769 53.1103099,108.180643 47.9257321,108.180643 C42.7411542,108.180643 38.5682013,104.00769 38.5682013,98.8231124 C38.5682013,93.6385345 42.7411542,89.4655816 47.9257321,89.4655816 C53.1103099,89.4655816 57.2832629,93.6385345 57.2832629,98.8231124" id="Shape" fill="#05AA9E"></path>
                <path d="M72.2047309,88.7700895 C72.2047309,91.994644 69.6124419,94.6501595 66.3246609,94.6501595 C63.1001063,94.6501595 60.4445908,92.0578705 60.4445908,88.7700895 C60.4445908,85.5455349 63.0368798,82.8900194 66.3246609,82.8900194 C69.5492154,82.953246 72.2047309,85.5455349 72.2047309,88.7700895" id="Shape" fill="#1F71B7"></path>
                <path d="M81.5622617,55.260013 C77.642215,55.260013 74.1015277,56.9039035 71.6356918,59.559419 C71.5092387,63.9852782 70.3079341,68.0950045 68.2846842,71.6989184 C69.6124419,77.7686681 75.0499261,82.384207 81.5622617,82.384207 C89.0862223,82.384207 95.155972,76.3144572 95.155972,68.7904967 C95.155972,61.3297627 89.0862223,55.260013 81.5622617,55.260013" id="Shape" fill="#F7B132"></path>
                <path d="M71.6356918,59.6226456 C69.3595357,62.0252548 67.9685514,65.3130359 67.9685514,68.8537232 C67.9685514,69.8653482 68.0950045,70.8137466 68.2846842,71.762145 C70.3711607,68.1582311 71.5724653,63.9852782 71.6356918,59.6226456" id="Shape" fill="#63884B"></path>
                <path d="M17.071171,51.5296459 C17.071171,55.7658254 13.5937103,59.2432862 9.3575308,59.2432862 C5.12135131,59.2432862 1.64389055,55.7658254 1.64389055,51.5296459 C1.64389055,47.2934665 5.12135131,43.8160057 9.3575308,43.8160057 C13.6569368,43.8160057 17.071171,47.2934665 17.071171,51.5296459" id="Shape" fill="#F7B132"></path>
                <path d="M17.513757,65.6291687 C8.66203864,65.6291687 1.51743743,72.7737699 1.51743743,81.6254882 C1.51743743,90.4772066 8.66203864,97.6218078 17.513757,97.6218078 C26.1757956,97.6218078 33.1939437,90.7933394 33.4468499,82.1945273 C27.0609674,78.8435196 22.2557489,73.0266762 20.3589521,65.9453015 C19.4737803,65.6923953 18.5253819,65.6291687 17.513757,65.6291687" id="Shape" fill="#1F71B7"></path>
                <path d="M20.4221787,65.8820749 C22.3189755,72.9634496 27.1874206,78.8435196 33.5100765,82.1313007 C33.5100765,81.941621 33.5100765,81.7519414 33.5100765,81.5622617 C33.5100765,73.7221683 27.8196862,67.2098327 20.4221787,65.8820749" id="Shape" fill="#0762AC"></path>
                <path d="M96.3572766,31.3603735 C96.3572766,40.1488652 89.2126754,47.2934665 80.4241836,47.2934665 C71.6356918,47.2934665 64.4910906,40.1488652 64.4910906,31.3603735 C64.4910906,22.5718817 71.6356918,15.4272805 80.4241836,15.4272805 C89.2126754,15.4272805 96.3572766,22.5718817 96.3572766,31.3603735" id="Shape" fill="#E4087E"></path>
                <path d="M38.5049747,52.098685 L36.6081779,55.260013 C36.6081779,55.260013 34.7113811,53.5528958 32.3719984,53.5528958 C29.1474439,53.5528958 27.5667799,55.9555051 27.5667799,58.4213409 C27.5667799,60.9504033 29.2106705,63.5426922 32.3719984,63.5426922 C34.9642874,63.5426922 36.8610842,61.4562158 36.8610842,61.4562158 L39.0107872,64.4910906 C39.0107872,64.4910906 36.6081779,67.3362858 32.1823188,67.3362858 C26.8712878,67.3362858 23.2673739,63.5426922 23.2673739,58.547794 C23.2041473,53.4896693 26.9977409,49.6960757 32.1190922,49.6960757 C36.2920451,49.6960757 38.5049747,52.098685 38.5049747,52.098685 Z" id="Shape" fill="#FFFFFF"></path>
                <path d="M39.7062793,50.0122085 L46.787654,50.0122085 C50.0754351,50.0122085 52.2883647,52.4148178 52.2883647,55.829052 C52.2883647,59.2432862 50.0754351,61.709122 46.787654,61.709122 L43.8792323,61.709122 L43.8792323,66.9569264 L39.7062793,66.9569264 L39.7062793,50.0122085 L39.7062793,50.0122085 Z M45.9024822,58.1684347 C47.356693,58.1684347 48.0521852,57.2200363 48.0521852,55.829052 C48.0521852,54.5012942 47.356693,53.5528958 45.9657087,53.5528958 L43.8792323,53.5528958 L43.8792323,58.1684347 L45.9024822,58.1684347 Z" id="Shape" fill="#FFFFFF"></path>
                <path d="M53.1735365,50.0122085 L59.1800596,50.0122085 C64.4910906,50.0122085 67.9685514,53.1103099 67.9685514,58.4845675 C67.9685514,63.7955985 64.5543172,67.020153 59.1800596,67.020153 L53.1735365,67.020153 L53.1735365,50.0122085 Z M58.99038,63.4162391 C61.8355751,63.4162391 63.6059188,61.709122 63.6059188,58.4845675 C63.6059188,55.260013 61.7723486,53.6161224 58.99038,53.6161224 L57.2832629,53.6161224 L57.2832629,63.4794657 L58.99038,63.4794657 L58.99038,63.4162391 Z" id="Shape" fill="#FFFFFF"></path>
            </g>
        </g>
    </g>
</svg>