<?xml version="1.0" encoding="utf-8"?>
<!-- Generator: Adobe Illustrator 19.1.0, SVG Export Plug-In . SVG Version: 6.00 Build 0)  -->
<svg version="1.0" id="Layer_1" xmlns="http://www.w3.org/2000/svg" xmlns:xlink="http://www.w3.org/1999/xlink" x="0px" y="0px"
	 viewBox="0 0 104.7 37.2" style="enable-background:new 0 0 104.7 37.2;" xml:space="preserve">
<style type="text/css">
	.st0{fill:#2BACE2;}
</style>
<g>
	<path class="st0" d="M20.8,11.2c0-1,0.8-1.8,1.8-1.8h1.8c1,0,1.8,0.8,1.8,1.8v4.2l-2.7,3.7l-2.7-3.7V11.2z"/>
	<path class="st0" d="M21,27.1c-0.6,0.8-1.7,1-2.5,0.4l-1.4-1c-0.8-0.6-1-1.7-0.4-2.5c0.8-1.2,1.7-2.3,2.5-3.4l4.4-1.4v4.6
		C22.7,24.8,21.9,26,21,27.1"/>
	<path class="st0" d="M30.4,23.9c0.6,0.8,0.4,2-0.4,2.5l-1.4,1c-0.8,0.6-2,0.4-2.6-0.4c-0.8-1.1-1.7-2.3-2.5-3.4v-4.6l4.4,1.4
		C28.7,21.7,29.5,22.8,30.4,23.9"/>
	<path class="st0" d="M30.2,14.1c0.9-0.3,2,0.2,2.3,1.2l0.5,1.7c0.3,0.9-0.2,2-1.2,2.3c-1.4,0.4-2.7,0.9-4,1.3l-4.4-1.4l2.7-3.7
		C27.5,15,28.9,14.5,30.2,14.1"/>
	<path class="st0" d="M15.1,19.2c-0.9-0.3-1.5-1.3-1.2-2.3l0.5-1.7c0.3-1,1.3-1.5,2.3-1.2c1.3,0.4,2.7,0.9,4,1.3l2.7,3.7l-4.4,1.4
		C17.8,20.1,16.5,19.7,15.1,19.2"/>
	<path class="st0" d="M33.2,27.4L33.2,27.4c-0.3,0.5-0.1,1,0.3,1.3c0.3,0.3,0.6,0.5,1,0.8c0.4,0.3,1,0.2,1.3-0.2
		c2.3-3,3.7-6.9,3.7-10.8h0c0-3.6-1.3-7.5-3.5-10.3c0,0-0.8-1.2-1.6-0.6c-0.6,0.5-0.5,0.4-1.1,1c-0.6,0.6-0.2,1,0.2,1.6
		c1.6,2.4,2.7,5,2.6,8.4C36,22.1,34.7,25.2,33.2,27.4"/>
	<polygon class="st0" points="65.6,16.2 61.9,16.2 61.9,18 63.1,18 63.1,23.5 62.1,23.5 62.1,25.3 66.6,25.3 66.6,23.5 65.6,23.5 	
		"/>
	<path class="st0" d="M59.8,19.6c0-2.2-1-3.5-3.1-3.5c-1.6,0-2.6,0.8-3,2.1h0c-0.2-1.4-1.2-2.1-2.6-2.1c-1.5,0-2.6,0.7-3.2,2.1h0
		c0.1-0.6,0.1-1.2,0.1-1.8h-3.6V18h1.2v5.5h-1v1.8h4.5v-1.8h-1v-3c0-1.4,0.6-2.4,1.9-2.4c0.9,0,1.6,0.4,1.6,1.7v3.7h-0.9v1.8h4.4
		v-1.8h-1v-3c0-1.5,0.7-2.4,1.9-2.4c0.9,0,1.6,0.4,1.6,1.7v3.7h-0.9v1.8h4.4v-1.8h-1V19.6z"/>
	<path class="st0" d="M64.2,14.7c1,0,1.6-0.6,1.6-1.5c0-0.9-0.6-1.5-1.6-1.5c-1,0-1.6,0.6-1.6,1.5C62.6,14.1,63.2,14.7,64.2,14.7"/>
	<path class="st0" d="M94.2,19.6l-1.9-0.3c-0.7-0.1-0.8-0.3-0.8-0.7c0-0.5,0.5-0.9,1.6-0.9c0.5,0,0.9,0.1,1.4,0.3v0.9h2.2v-2.2
		c-1.4-0.4-2.6-0.6-3.5-0.6c-1.9,0-4,0.7-4,3c0,1.3,0.7,2.2,2.3,2.4l2,0.3c1.1,0.2,1.4,0.4,1.4,0.9c0,1-1.3,1.1-1.8,1.1
		c-0.5,0-1.2-0.2-1.6-0.3v-1.1h-2.2v2.6c1,0.3,2.5,0.6,3.6,0.6c3.2,0,4.3-1.5,4.3-3.1C97.1,20.7,96.3,19.9,94.2,19.6"/>
	<path class="st0" d="M74.3,20.9c0,1.4-0.8,2.5-2,2.5h-0.1c-1.2,0-1.9-1.2-1.9-2.6c0-1.3,0.5-2.5,2-2.7c0.1,0,0.3,0,0.4,0
		c0.5,0,1.2,0.2,1.6,0.3V20.9z M76.8,12h-3.8v1.8h1.4v2.5c-0.5-0.1-1.1-0.2-1.5-0.2c-0.2,0-0.4,0-0.5,0c-3.4,0.3-4.5,2.9-4.5,5.3
		c0,2.7,1.7,4.2,3.7,4.2c0.3,0,0.6,0,0.8-0.1c1.1-0.2,1.8-0.9,2.3-1.9h0c-0.1,0.6-0.2,1.1-0.2,1.8h3.4v-1.8h-1V12z"/>
	<path class="st0" d="M81.6,19.6c0.1-1.2,0.7-1.9,1.9-1.9c1.1,0,1.9,0.7,1.9,1.9h-1.9H81.6z M88,21.3c0-2.9-1.3-5.3-4.4-5.3h-0.1
		c-2.8,0-4.5,2-4.5,4.8c0,2.4,1.3,4.5,4.5,4.7c0.2,0,0.3,0,0.5,0c1.3,0,2.2-0.2,3.4-0.6l0.1-1.9c-1,0.4-1.8,0.6-2.9,0.6
		c-0.4,0-0.7,0-1.1-0.1c-1.1-0.3-1.8-1.1-1.8-2.2h1.8H88z"/>
	<path class="st0" d="M13.8,27.4L13.8,27.4c0.3,0.5,0.1,1-0.3,1.3c-0.3,0.3-0.6,0.5-1,0.8c-0.4,0.3-1,0.2-1.3-0.2
		c-2.4-3-3.7-6.9-3.7-10.8c0-3.6,1.3-7.5,3.5-10.3c0,0,0.8-1.2,1.6-0.6c0.6,0.5,0.5,0.4,1.1,1c0.6,0.6,0.2,1-0.2,1.6
		c-1.6,2.4-2.6,5-2.6,8.4C11,22.1,12.3,25.2,13.8,27.4"/>
</g>
</svg>
