<?xml version="1.0" encoding="UTF-8"?>
<svg width="103px" height="101px" viewBox="0 0 103 101" version="1.1" xmlns="http://www.w3.org/2000/svg" xmlns:xlink="http://www.w3.org/1999/xlink">
    <!-- Generator: Sketch 49.1 (51147) - http://www.bohemiancoding.com/sketch -->
    <title>Artboard Copy 4</title>
    <desc>Created with Sketch.</desc>
    <defs></defs>
    <g id="Artboard-Copy-4" stroke="none" stroke-width="1" fill="none" fill-rule="evenodd">
        <g id="Group-7" transform="translate(2.000000, 7.000000)">
            <path d="M91.4697539,83.1617191 L91.4660306,83.1594919 C93.6627747,81.939705 94.8385913,80.3101053 94.6725323,78.9448051 C94.5876412,78.2558446 94.1631855,77.6344437 93.3522519,77.1667226 C92.2129236,76.5104282 90.4011682,76.21272 88.8046193,76.3277943 C87.337641,76.4339595 85.590671,75.6521971 86.0233179,74.7746633 C86.169271,74.4791823 86.5594724,74.17405 87.2899829,73.887478 L98.1165802,69.6163678 C99.1687834,69.0484208 99.5403683,68.3097184 99.2842056,67.6059095 C99.1270825,67.1730819 98.7331579,66.7543602 98.1128569,66.3965164 L85.8892793,61.2820234 C85.8535356,61.2664327 85.8148134,61.2434178 85.7746018,61.2152061 C85.099196,60.7452577 84.0350783,58.6620428 87.7874151,58.7288601 C89.3258806,58.7570719 91.0467876,58.4979693 92.2315401,57.858008 C93.0640688,57.4088473 93.5927767,56.817143 93.8213871,56.1601062 C94.2935009,54.8051999 93.4713973,53.1674336 91.2746532,51.901617 C91.1435932,51.8251483 90.7273289,51.6373175 90.7273289,51.6373175 C88.9490831,50.8332827 86.7486158,50.3796674 84.7395257,50.3380922 L84.743249,50.335865 L84.6561239,50.3351226 C84.6114444,50.3343802 84.5667648,50.3336377 84.5220853,50.3336377 L74.688863,50.2259876 C74.4863158,50.2193059 74.2874918,50.2170787 74.0901572,50.2193059 L73.9598419,50.2178211 L73.9717564,50.2207907 C72.5390325,50.2475177 71.2388578,50.4932568 70.3139913,50.9921593 C70.1672935,51.0715977 70.0310209,51.1569753 69.9066629,51.2460651 L64.1675759,46.8324113 C63.3834499,46.3802809 62.3506079,46.1434507 61.3006387,46.118951 L61.3065959,46.1182086 L61.2239388,46.1174662 C61.199365,46.1167238 61.173302,46.1159813 61.1479836,46.1159813 L51.2857196,46.0075888 L51.2894429,46.0090737 C50.0972438,45.9511653 48.8640885,46.1701776 47.9332647,46.6735346 L37.2317701,50.8028437 C35.6322425,53.3136893 38.6458775,53.3344769 38.6458775,53.3344769 C38.6458775,53.3344769 41.9968431,53.5490346 43.1354267,54.2060714 C45.5816316,55.615174 44.9010132,58.4252126 41.5046235,60.2589763 C41.223887,60.4104288 40.9319807,60.5492603 40.6333724,60.6784404 C39.4515986,59.7311196 39.6288274,58.431152 39.6288274,58.431152 C39.5982964,57.7228886 38.5840708,57.4912553 37.528889,57.4422559 L37.5281443,57.4422559 C37.2928321,57.4326045 37.0560305,57.4303773 36.8274202,57.4348318 L27.2116384,57.3212424 C26.0782674,57.2826368 24.9322371,57.4429983 24.9322371,57.4429983 L17.1833155,63.2724365 C15.4840036,64.1900607 15.6902741,65.6533596 17.3203327,66.5925138 L34.38196,76.425793 L34.8838602,76.7145922 L50.9416871,85.9695305 C51.9082545,86.5270838 53.1019429,86.8604278 54.2673343,86.8507764 L54.2643556,86.8537461 L64.2822533,86.9688203 C64.2971465,86.9688203 64.3105504,86.9688203 64.3246989,86.9688203 L64.4207599,86.9703052 L64.4177813,86.9688203 C65.2376509,86.9695628 66.0463505,86.8040043 66.7552659,86.4209185 L70.3661175,83.8358314 C70.3996271,83.856619 70.4256902,83.8774066 70.4591999,83.8967094 C71.3788537,84.4267933 72.651476,84.6955473 74.0618602,84.728956 L74.0611155,84.728956 L74.0976038,84.7296984 C74.1929201,84.7319257 74.2889812,84.7334105 74.3865315,84.7326681 L84.3798554,84.8477423 C84.4483641,84.8484847 84.5168727,84.8499695 84.586126,84.8499695 L84.5943172,84.8499695 C86.8215923,84.8462575 89.3444971,84.2745984 91.3513531,83.2218547 L91.3550764,83.2233395 C91.3736929,83.2136881 91.3915647,83.2018095 91.4101812,83.1914157 C91.4295423,83.1810219 91.4511374,83.1713705 91.4697539,83.1617191" id="Fill-1" fill="#2D8ECD"></path>
            <path d="M20.4544732,35.6920261 L43.5329453,22.4057774 C42.5343575,21.7234985 39.3561529,17.9327305 41.8589518,16.583021 C42.8858366,16.0299223 43.686345,14.8257261 43.686345,13.0617494 C43.686345,11.8241445 43.3199728,10.418754 42.6818,9 L17,23.7851834 C19.0500463,26.4994506 20.5497895,30.5797603 20.5497895,34.1990307 C20.5497895,34.7291146 20.5162799,35.2257898 20.4544732,35.6920261" id="Fill-5" fill="#2CA48A"></path>
            <path d="M59.5642727,47.448224 L61.4452814,34.5272432 C61.4452814,32.9622336 60.8011513,31.3207553 59.795117,30 L13,56.9407349 L30.1420505,66.8207862 L59.8070316,49.7422846 C59.5486349,49.0882175 59.4354467,48.3161065 59.5642727,47.448224" id="Fill-7" fill="#2CA48A"></path>
            <path d="M73.5796535,63.791704 L73.5751856,63.7887343 C73.5342293,60.4538087 72.3464982,56.6934796 70.6062301,54 L40,71.6197217 L53.0091929,79.1173651 L53.9861856,85.9898955 L60.5875877,82.2555509 C60.5972683,82.250354 60.6062042,82.2444147 60.6166294,82.2392178 L60.6791808,82.2035819 L60.6747128,82.2013546 C61.2056547,81.8791468 61.5288367,81.2228524 61.5288367,80.1686239 L59.7967598,64.9936729 C59.5391078,62.6253709 62.3174306,62.7129758 63.6920711,65.1503224 C63.8685553,65.4643637 64.0442949,65.7620719 64.220779,66.0508711 L64.220779,73.8551316 L71.0210051,70.00794 C71.0664293,69.9826979 71.1125982,69.9589406 71.1565331,69.9314713 L71.1624904,69.9285017 L71.1617457,69.9277592 C72.5952143,69.0383468 73.5386973,66.8831177 73.5751856,63.9594896 L73.5796535,63.9624593 C73.5796535,63.9342475 73.5774195,63.9038085 73.5774195,63.8755968 C73.5774195,63.8466426 73.5796535,63.8191733 73.5796535,63.791704" id="Fill-9" fill="#2CA48A"></path>
            <path d="M43.5967295,22.0883473 C43.5550286,22.0712718 43.5021578,22.0400904 43.4433297,22 L20.3656023,35.2862487 C19.8428517,39.2670749 17.1985675,40.888508 14.2772702,39.2047121 C14.1625927,39.1386372 14.0494045,39.0636533 13.936961,38.9871846 C11.9122332,37.6040665 10.3387687,34.6477723 10.3387687,34.6477723 C9.47198559,33.2290183 8.54116182,33.1614586 7.80171542,33.4814392 C7.63714578,33.5534534 7.4822567,33.644028 7.33928217,33.7427691 L0,38.5 L7.5641692,43.4416712 L8.36914559,49.5190758 C8.36914559,52.0447697 10.2508989,54.9201408 12.4253032,56.1740788 L13.0039033,56.5074228 L59.7990203,29.5666879 C59.1809533,28.7552289 58.4258691,28.0640411 57.5985529,27.5866686 L43.5967295,22.0883473 Z" id="Fill-11" fill="#93EDD9"></path>
            <path d="M67.2545457,50.9339896 C65.7346967,50.058683 64.2088904,50.1737572 63.3167889,51.0394124 C62.4969193,51.8345383 60.4349585,50.9451258 59.6649811,49 L30,66.0785016 L35.0428308,68.9850541 L35.7130239,69.3711096 L39.6247177,71.6258223 L70.2309478,54.0061005 C69.3529948,52.6467397 68.3357906,51.5576177 67.2545457,50.9339896" id="Fill-13" fill="#93EDD9"></path>
            <path d="M3,5.22825137 L7.84251756,7.15927131 L6.39117714,16.4394517 C8.36005557,22.1478763 10.3296787,20.9956491 10.3296787,20.9956491 C10.3296787,20.9956491 12.7483311,20.1032669 14.2681802,20.979316 C15.1930467,21.5123695 16.0903608,22.3728279 16.9012944,23.4471016 L42.5830945,8.66191812 C41.2680267,5.73457802 38.7801209,2.750072 35.8498877,1.06182158 C35.6734035,0.960110798 35.1804392,0.744810613 35.1804392,0.744810613 C33.0723096,-0.176525698 31.1093884,-0.221070564 29.7630449,0.489420048 C29.6759198,0.532480085 29.6468781,0.549555617 29.6178364,0.566631149 C25.2466877,2.94969004 22.971258,4.42747966 22.7915472,5 C22.6118365,5.57252034 24.3995146,5.64860414 28.1545814,5.22825137 C28.4747848,6.61730878 29.1814662,8.11178903 30.0966521,9.52237645 C30.0966521,9.52237645 32.5019008,14.5670825 27.9646934,13.1520406 L12.2993017,1.5518151 C11.2523112,0.948232167 10.3028709,0.878445211 9.59693419,1.24594035 C9.5276809,1.28009142 9.51055375,1.28900039 9.49417125,1.29939419 L3,5.22825137 Z" id="Fill-15" fill="#93EDD9"></path>
            <path d="M61.0002323,55.3140226 C59.4811279,54.4387159 57.9553216,54.5530478 57.0624755,55.4194454 C55.9670821,56.4818405 52.6548388,54.5367147 53.1671642,51.0859724 L55.0489175,38.1642492 C55.0489175,35.6378129 53.3741794,32.9116671 51.1982857,31.6577291 L37.1957177,26.1594078 C36.4398888,25.8446241 32.7195724,21.6767094 35.3683245,20.2475617 C36.3952092,19.6952053 37.1957177,18.4902667 37.1957177,16.72629 C37.1957177,12.9362643 33.8090085,7.57157763 29.4579659,5.06444409 C29.2822264,4.96347573 28.7885174,4.74817555 28.7885174,4.74817555 C24.9468216,3.06809168 21.5727716,4.28490894 21.5727716,7.72228776 C21.5727716,9.48626446 22.4477459,11.5858125 23.7047303,13.5257414 C23.7047303,13.5257414 26.1107236,18.5704475 21.5727716,17.1554055 L5.90737995,5.55443762 C3.73297563,4.30049964 1.96813377,5.33097088 1.96813377,7.85666478 L0,20.4420742 C1.96813377,26.1512412 3.93775686,24.999014 3.93775686,24.999014 C3.93775686,24.999014 6.35715399,24.1066319 7.87625838,24.9819385 C11.1393542,26.8624743 14.0599068,32.8129259 14.0599068,37.8635713 C14.0599068,42.9157015 11.1393542,45.1563083 7.87625838,43.2757725 C5.68993951,42.0158952 3.93775686,38.7188327 3.93775686,38.7188327 C2.11185296,35.7291298 0,38.7359083 0,38.7359083 L1.96813377,53.5893938 C1.96813377,56.1158301 3.84988709,58.9912012 6.02503607,60.2443968 L28.7885174,73.3650871 L29.4579659,73.7504002 L50.8825503,86.098237 C53.0591886,87.3529174 54.899241,87.0804513 54.899241,84.554015 L53.1671642,69.379064 C52.9095122,67.010762 55.6878349,67.0983669 57.0624755,69.5357134 C58.3000988,71.7310329 59.4811279,73.3042091 61.0002323,74.1787733 C64.2260952,76.0385215 66.8852725,73.2886184 66.9463345,68.3448807 C66.8852725,63.1568886 64.2260952,57.1737707 61.0002323,55.3140226 Z" id="Fill-17" fill="#47D5B6"></path>
        </g>
    </g>
</svg>